<?xml version="1.0" standalone="no"?>
<!DOCTYPE svg PUBLIC "-//W3C//DTD SVG 20010904//EN"
 "http://www.w3.org/TR/2001/REC-SVG-20010904/DTD/svg10.dtd">
<svg version="1.0" xmlns="http://www.w3.org/2000/svg"
 width="1680.000000pt" height="1680.000000pt" viewBox="0 0 1680.000000 1680.000000"
 preserveAspectRatio="xMidYMid meet">
<metadata>
Created by potrace 1.14, written by Peter Selinger 2001-2017
</metadata>
<g transform="translate(0.000000,1680.000000) scale(0.100000,-0.100000)"
fill="#000000" stroke="none">
<path d="M13586 12923 c-8 -8 -37 -13 -91 -16 -22 -1 -46 -6 -52 -10 -8 -5
-13 -4 -13 3 0 7 -6 8 -17 1 -10 -5 -34 -10 -53 -12 -19 -2 -39 -5 -45 -8 -11
-6 -19 -7 -58 -9 -16 -1 -26 -6 -23 -10 2 -4 -8 -7 -22 -6 -15 0 -30 -4 -34
-10 -5 -7 -8 -6 -8 4 0 13 -2 13 -9 1 -5 -8 -22 -16 -38 -19 -15 -2 -30 -6
-33 -10 -5 -8 -24 -13 -52 -15 -10 -1 -18 -5 -18 -10 0 -5 -6 -7 -14 -4 -8 3
-17 -1 -20 -9 -3 -9 -10 -12 -16 -9 -5 3 -10 2 -10 -4 0 -6 -6 -8 -14 -5 -7 3
-21 -2 -30 -11 -9 -9 -16 -14 -16 -10 0 3 -13 -3 -29 -14 -15 -11 -31 -18 -35
-14 -3 3 -6 0 -6 -7 0 -7 -3 -10 -7 -7 -3 4 -15 0 -25 -10 -10 -9 -18 -13 -18
-9 0 4 -10 -2 -22 -14 -12 -11 -34 -25 -49 -32 -15 -7 -25 -16 -23 -20 3 -4 0
-8 -6 -8 -12 0 -32 -15 -62 -47 -12 -13 -25 -23 -30 -23 -11 0 -48 -37 -42
-42 2 -3 -7 -11 -21 -18 -14 -7 -25 -18 -25 -24 0 -7 -14 -24 -31 -39 -17 -15
-28 -27 -24 -27 4 0 -10 -22 -30 -50 -20 -27 -33 -50 -28 -50 4 0 1 -6 -8 -13
-15 -11 -32 -47 -34 -72 0 -5 -6 -9 -12 -8 -6 1 -10 -5 -8 -15 1 -9 -1 -21 -5
-27 -9 -12 -24 -67 -22 -77 1 -5 -2 -8 -7 -8 -6 0 -8 -9 -6 -20 2 -11 0 -22
-6 -25 -5 -4 -9 -24 -9 -45 0 -21 -4 -42 -10 -45 -5 -3 -10 -11 -10 -16 0 -6
5 -7 12 -3 7 5 8 3 3 -6 -4 -6 -9 -32 -11 -55 l-4 -43 57 0 c32 0 63 -1 68 -2
6 -2 14 -2 19 -1 6 2 124 2 263 2 149 0 254 4 254 10 1 5 3 12 4 17 1 4 5 26
10 50 4 23 11 42 16 42 5 0 8 3 7 8 -3 15 15 62 24 62 5 0 7 4 4 8 -3 5 4 16
15 25 10 9 19 24 19 32 0 9 4 14 8 11 4 -2 17 9 27 25 11 16 25 29 31 29 7 0
14 7 18 15 3 8 13 15 21 15 10 0 13 5 9 12 -5 8 -2 9 10 5 9 -4 15 -3 13 1 -6
9 19 33 27 25 3 -4 6 -2 6 3 0 6 20 18 45 28 24 10 43 22 40 26 -2 4 1 7 8 8
22 2 42 7 55 15 6 5 12 5 12 0 0 -4 4 -3 8 4 4 6 20 14 35 17 16 3 44 10 63
16 18 6 38 9 44 5 5 -3 10 -2 10 4 0 5 11 8 25 6 14 -1 28 1 30 5 3 5 16 7 30
5 14 -1 28 1 30 5 3 4 21 6 41 3 29 -4 35 -2 28 9 -5 9 -2 9 11 -2 19 -16 21
-16 44 3 9 7 12 8 8 1 -4 -7 6 -11 28 -11 22 0 32 4 28 11 -4 7 -1 7 8 -1 8
-6 46 -14 84 -17 75 -5 125 -12 165 -22 14 -3 40 -8 58 -11 17 -3 32 -9 32
-15 0 -5 8 -8 18 -7 29 3 40 0 56 -17 11 -11 16 -12 16 -3 0 7 6 5 13 -6 8
-10 19 -15 26 -11 6 4 14 0 17 -9 4 -9 13 -14 20 -11 8 3 14 2 14 -3 0 -5 11
-12 25 -15 14 -4 23 -10 21 -15 -5 -7 4 -12 39 -20 13 -3 59 -57 57 -66 -2 -5
0 -7 4 -3 4 4 16 -3 28 -16 47 -52 65 -76 58 -76 -4 0 0 -5 8 -10 8 -5 15 -13
15 -17 1 -4 6 -18 13 -29 6 -12 8 -24 5 -28 -3 -3 -1 -6 6 -6 8 0 11 -7 7 -15
-3 -8 -1 -15 3 -15 5 0 12 -7 15 -16 4 -10 2 -13 -7 -8 -8 6 -8 3 1 -9 8 -9
11 -21 7 -27 -3 -5 -1 -10 6 -10 6 0 9 -8 6 -20 -3 -11 -2 -20 2 -20 4 0 6
-29 6 -65 -1 -40 3 -65 9 -65 8 0 7 -3 0 -8 -10 -6 -23 -62 -27 -114 -1 -10
-5 -18 -9 -18 -4 0 -8 -8 -8 -19 0 -10 -7 -24 -15 -31 -8 -7 -13 -16 -10 -20
3 -4 -2 -11 -11 -14 -9 -4 -14 -9 -11 -12 7 -7 -29 -44 -44 -44 -5 0 -8 -4 -5
-9 3 -5 -4 -16 -17 -24 -12 -8 -33 -24 -46 -36 -13 -11 -28 -18 -32 -15 -5 3
-9 2 -9 -3 0 -4 -14 -16 -31 -25 -17 -10 -27 -12 -23 -5 4 6 -1 5 -12 -5 -10
-9 -28 -18 -39 -20 -11 -1 -26 -9 -33 -16 -8 -7 -17 -10 -22 -7 -5 3 -11 1
-15 -5 -4 -6 -11 -8 -16 -5 -5 4 -15 3 -21 -2 -7 -4 -21 -8 -30 -9 -10 -1 -19
-3 -20 -4 -2 -1 -15 -3 -31 -4 -15 -2 -30 -6 -34 -9 -3 -4 -13 -1 -21 6 -13 9
-14 9 -8 0 5 -9 -1 -13 -18 -14 -14 -1 -34 -2 -43 -2 -10 -1 -21 -6 -25 -12
-5 -6 -8 -6 -8 2 0 11 -34 10 -67 -2 -7 -2 -15 0 -18 6 -4 5 -11 6 -18 2 -20
-12 -97 -12 -90 1 4 6 -1 5 -11 -3 -15 -13 -19 -13 -27 0 -5 8 -9 9 -9 3 0 -7
-22 -11 -60 -10 -33 1 -60 -1 -60 -4 0 -3 -19 -5 -42 -4 -24 0 -48 -3 -55 -8
-7 -5 -14 -5 -18 2 -3 6 -12 7 -18 3 -6 -4 -23 -7 -37 -7 -14 -1 -31 -5 -37
-9 -8 -5 -13 -3 -13 5 0 8 -3 9 -8 3 -4 -6 -23 -11 -42 -12 -19 -1 -35 -2 -35
-3 0 -1 -11 -4 -60 -14 -5 -1 -16 -6 -24 -10 -10 -7 -12 -5 -6 3 5 9 3 10 -11
2 -11 -5 -59 -20 -109 -32 -49 -13 -92 -25 -95 -28 -6 -7 -27 -13 -52 -15 -10
-1 -27 -11 -39 -22 -12 -10 -19 -13 -14 -5 6 11 2 10 -16 -2 -13 -9 -32 -17
-42 -17 -11 0 -15 -4 -11 -12 5 -8 2 -9 -9 -5 -10 3 -17 2 -17 -3 0 -6 -7 -10
-15 -10 -8 0 -15 -5 -15 -10 0 -6 -3 -10 -7 -9 -18 3 -52 -14 -47 -22 3 -5 -2
-9 -12 -9 -16 0 -61 -33 -113 -82 -13 -13 -21 -16 -16 -8 4 8 -8 -2 -27 -22
-19 -21 -38 -35 -41 -31 -4 3 -7 -1 -7 -10 0 -9 -9 -22 -20 -29 -11 -7 -20
-19 -20 -26 0 -7 -4 -10 -10 -7 -5 3 -10 1 -10 -5 0 -11 -9 -24 -42 -61 -10
-10 -16 -19 -13 -19 3 0 -6 -18 -20 -40 -14 -22 -25 -44 -25 -50 0 -5 -5 -10
-11 -10 -5 0 -8 -4 -4 -9 3 -5 1 -12 -5 -16 -6 -4 -8 -11 -5 -16 4 -5 1 -9 -5
-9 -7 0 -10 -7 -6 -15 3 -8 1 -15 -5 -15 -6 0 -9 -7 -5 -15 3 -8 1 -15 -5 -15
-5 0 -9 -8 -7 -17 2 -10 -2 -17 -8 -16 -5 1 -9 -12 -8 -30 1 -18 -1 -36 -5
-42 -4 -5 -8 -23 -10 -40 -2 -16 -8 -33 -15 -37 -7 -5 -7 -8 0 -8 11 0 13 -27
3 -45 -3 -6 -5 -36 -4 -67 1 -34 -3 -55 -8 -51 -6 4 -7 1 -2 -7 13 -21 13
-160 1 -152 -8 4 -8 1 0 -9 6 -8 10 -51 9 -96 -1 -54 2 -83 9 -83 8 0 8 -2 0
-8 -14 -9 -13 -145 1 -154 7 -5 7 -8 -1 -8 -14 0 -14 -150 1 -150 7 0 6 -3 -1
-8 -14 -9 -14 -152 0 -152 8 0 8 -3 0 -8 -14 -10 -13 -144 2 -159 6 -7 33 -11
62 -9 29 1 54 -3 56 -9 3 -6 5 -6 5 0 1 6 55 9 143 8 99 -1 145 3 150 10 6 9
8 9 8 1 0 -8 353 -11 1329 -11 l1328 0 -1 311 -1 311 -30 -4 c-61 -8 -110 -6
-123 3 -8 6 -16 6 -20 0 -8 -10 -94 -15 -87 -5 2 4 -5 7 -16 7 -10 0 -19 -3
-19 -6 0 -10 -85 -5 -92 5 -5 6 -8 6 -8 -2 0 -12 -17 -12 -37 0 -7 5 -13 4
-13 -2 0 -6 -8 -7 -22 -2 -12 4 -36 5 -53 2 -16 -3 -48 -5 -70 -4 -46 3 -93 3
-150 -1 -22 -1 -46 3 -53 8 -8 6 -16 6 -20 0 -8 -10 -94 -15 -87 -5 2 4 -5 7
-16 7 -10 0 -19 -3 -19 -6 0 -10 -85 -5 -92 5 -5 6 -8 6 -8 -2 0 -12 -17 -12
-37 0 -7 5 -13 4 -13 -2 0 -6 -8 -7 -22 -2 -12 4 -36 5 -53 2 -16 -3 -48 -5
-70 -4 -46 3 -93 3 -150 -1 -22 -1 -46 3 -53 8 -8 6 -16 6 -20 0 -8 -10 -94
-15 -87 -5 2 4 -5 7 -16 7 -10 0 -19 -3 -19 -6 0 -10 -85 -5 -92 5 -5 6 -8 6
-8 -2 0 -12 -17 -12 -37 0 -7 5 -13 4 -13 -2 0 -6 -8 -7 -22 -2 -12 4 -36 5
-53 2 -16 -3 -48 -5 -70 -4 -46 3 -93 3 -150 -1 -22 -1 -46 3 -53 8 -8 6 -16
6 -20 0 -8 -10 -94 -15 -87 -5 2 4 -5 7 -16 7 -10 0 -19 -3 -19 -6 0 -10 -85
-5 -92 5 -5 6 -8 6 -8 -2 0 -12 -24 -12 -36 0 -4 3 -15 2 -25 -3 -19 -10 -48
9 -50 33 -5 59 -4 84 3 99 5 10 4 19 -2 23 -10 6 -7 45 4 64 4 5 3 12 -1 14
-10 6 -9 175 0 184 4 3 1 13 -6 21 -7 10 -8 13 -1 9 11 -6 17 13 26 81 1 6 5
12 10 12 4 0 7 3 6 8 -3 14 22 62 32 62 6 0 9 4 6 9 -3 4 11 26 32 47 20 21
36 42 35 46 -2 4 5 4 14 1 11 -4 14 -3 9 5 -4 7 -1 12 8 12 9 0 16 4 16 8 0 5
18 17 40 28 22 10 40 22 40 25 0 7 50 23 63 21 4 -1 7 3 7 9 0 5 5 7 10 4 6
-3 10 -1 10 6 0 7 3 10 6 6 4 -3 19 0 35 9 16 8 31 14 34 14 28 -1 35 2 29 11
-5 8 -1 8 14 0 14 -7 23 -8 27 -1 4 6 11 8 16 5 5 -4 9 -2 9 3 0 5 14 8 30 7
17 -1 33 2 36 7 3 4 16 6 29 4 14 -3 27 -1 30 3 2 5 16 7 30 6 14 -2 25 2 25
8 0 8 3 7 9 -1 4 -8 12 -14 16 -14 4 0 12 6 16 14 7 11 9 11 9 -1 0 -10 3 -11
14 -2 10 8 16 9 21 1 4 -6 12 -7 24 0 12 6 22 5 30 -3 8 -8 14 -8 19 -2 11 15
32 17 32 3 0 -10 2 -10 9 0 4 8 12 14 16 14 4 0 12 -6 16 -14 5 -7 9 -8 9 -3
0 7 35 12 88 13 48 1 119 4 157 7 39 4 89 7 113 7 23 1 42 4 42 8 0 4 12 6 28
5 15 -1 38 2 52 6 14 4 41 10 60 13 64 10 95 19 102 30 5 8 8 7 8 -2 0 -9 8
-9 35 2 19 8 35 12 35 9 0 -3 7 0 15 7 8 6 19 9 25 5 5 -3 10 -1 10 5 0 6 4 9
9 5 5 -3 13 0 16 6 4 5 13 8 20 5 8 -3 15 0 17 5 2 6 10 11 18 13 8 1 25 7 37
14 12 7 29 12 37 12 9 0 16 3 16 8 0 4 18 15 40 25 22 9 40 22 40 28 0 5 4 8
9 4 5 -3 12 -1 16 5 4 6 11 7 17 4 7 -5 8 -2 4 5 -5 8 0 14 13 18 12 3 21 9
21 13 0 5 9 12 20 15 11 4 18 11 15 16 -4 5 0 9 8 9 8 0 17 7 21 15 3 8 13 15
22 15 10 0 14 5 10 15 -5 14 6 20 29 15 6 -1 7 1 3 5 -4 4 -2 13 5 21 50 56
98 133 91 146 -4 6 -3 8 3 5 10 -6 37 43 33 59 -1 4 3 10 10 14 6 4 12 13 13
21 2 8 6 20 10 27 5 6 5 12 1 12 -3 0 1 12 11 26 11 18 12 24 4 18 -11 -6 -12
-5 -2 7 6 8 14 26 16 39 2 14 7 32 10 40 6 14 12 52 23 145 2 22 5 72 7 112 1
40 6 69 11 66 5 -4 6 0 0 8 -4 8 -9 34 -10 59 -2 50 -12 139 -20 185 -3 17 -6
37 -8 47 -1 9 -8 23 -15 32 -11 13 -11 16 0 16 10 0 10 3 1 12 -7 7 -12 19
-12 27 0 8 -8 23 -17 34 -13 15 -14 18 -3 12 12 -7 13 -6 3 7 -7 8 -10 18 -6
21 3 4 1 7 -6 7 -8 0 -11 7 -7 15 3 8 1 15 -4 15 -6 0 -10 7 -10 15 0 8 -5 15
-11 15 -5 0 -8 4 -4 9 3 5 -1 16 -9 24 -8 8 -12 17 -9 21 3 3 -2 8 -11 12 -9
3 -16 12 -16 20 0 8 -5 14 -11 14 -5 0 -8 4 -5 8 3 5 -6 20 -20 35 -13 14 -24
30 -24 35 0 6 -7 13 -16 16 -8 3 -12 11 -8 17 4 7 3 10 -2 7 -11 -6 -65 48
-56 56 3 3 0 6 -7 6 -6 0 -24 12 -40 28 -15 15 -36 32 -47 39 -10 6 -18 16
-17 22 2 6 0 10 -5 9 -12 -3 -62 25 -62 34 0 5 -4 7 -9 4 -5 -3 -12 1 -15 10
-3 8 -10 13 -15 9 -5 -3 -12 -1 -16 4 -6 11 -190 102 -211 105 -8 1 -17 5 -20
9 -4 4 -16 7 -26 7 -10 0 -18 4 -18 8 0 5 -6 9 -12 10 -15 1 -38 6 -85 21 -18
5 -33 7 -33 3 0 -4 -4 -2 -8 5 -4 7 -24 14 -45 16 -20 2 -40 7 -44 10 -3 4
-17 7 -30 7 -14 0 -33 5 -44 10 -14 8 -19 7 -19 -2 0 -9 -3 -9 -10 2 -5 8 -10
11 -10 7 0 -4 -9 -3 -19 3 -14 7 -21 6 -24 -3 -4 -9 -6 -9 -6 1 -1 7 -5 10
-11 7 -5 -3 -18 -1 -28 4 -13 7 -22 7 -30 -1 -9 -9 -12 -9 -12 1 0 8 -7 11
-19 8 -10 -2 -25 -1 -32 4 -7 4 -19 3 -25 -2 -8 -7 -14 -7 -18 0 -4 6 -13 8
-21 4 -9 -3 -15 1 -15 8 0 9 -3 10 -8 4 -4 -6 -16 -11 -27 -11 -11 0 -23 5
-27 11 -5 6 -8 6 -8 0 0 -5 -11 -10 -25 -10 -14 0 -25 4 -25 8 0 4 -9 3 -20
-3 -15 -8 -20 -8 -20 1 0 9 -3 9 -14 0 -9 -7 -17 -8 -20 -2 -7 10 -25 9 -43
-2 -8 -5 -13 -3 -13 3 0 6 -5 8 -12 3 -20 -12 -50 -14 -43 -3 7 11 2 13 -9 3z"/>
<path d="M3110 11973 c-25 -10 -97 -100 -92 -115 1 -5 -2 -7 -8 -3 -5 3 -10
-1 -10 -10 0 -9 -4 -13 -10 -10 -5 3 -10 -3 -10 -15 0 -12 -5 -18 -10 -15 -6
3 -15 -6 -20 -20 -6 -16 -14 -23 -22 -19 -8 5 -9 2 -5 -9 4 -12 1 -17 -10 -17
-9 0 -14 -3 -10 -6 6 -6 -16 -36 -45 -62 -9 -9 -15 -19 -12 -24 3 -4 -6 -4
-19 1 -14 6 -28 7 -31 4 -3 -4 -6 -2 -6 4 0 5 -30 24 -67 42 -38 18 -76 37
-85 42 -24 12 -31 11 -22 -3 4 -7 -2 -5 -13 5 -11 9 -23 14 -26 10 -4 -3 -7
-2 -7 3 0 9 -24 14 -72 17 -10 1 -18 4 -18 8 0 3 -14 5 -31 3 -16 -2 -28 0
-25 4 3 5 -17 8 -44 7 -30 -1 -50 3 -50 9 0 6 -5 4 -10 -4 -5 -8 -10 -10 -10
-5 0 12 -40 12 -60 0 -8 -5 -11 -4 -7 2 4 6 -7 10 -25 11 -24 1 -28 -2 -18 -8
9 -6 10 -10 3 -10 -6 0 -14 4 -17 8 -6 11 -46 9 -63 -1 -7 -5 -13 -4 -13 0 0
9 -40 10 -56 2 -5 -3 -25 -7 -44 -8 -64 -5 -80 -7 -86 -14 -4 -3 -15 -2 -25 4
-15 7 -19 7 -17 -3 2 -7 -3 -12 -11 -10 -7 1 -19 -3 -27 -9 -11 -9 -14 -9 -14
1 0 9 -3 10 -13 1 -8 -6 -17 -8 -20 -4 -4 3 -10 -2 -13 -11 -5 -14 -9 -15 -15
-4 -8 11 -11 11 -18 -1 -5 -8 -16 -11 -25 -8 -9 4 -16 3 -16 -1 0 -4 -11 -12
-25 -19 -19 -8 -25 -8 -25 0 0 7 -5 4 -11 -6 -6 -9 -14 -15 -20 -12 -5 4 -9 1
-9 -6 0 -7 -3 -10 -6 -6 -3 3 -22 -3 -41 -14 -20 -11 -38 -18 -40 -15 -3 3
-14 -4 -26 -15 -11 -10 -27 -19 -34 -19 -7 0 -13 -5 -13 -11 0 -5 -4 -7 -10
-4 -5 3 -10 1 -10 -5 0 -7 -7 -9 -16 -6 -8 3 -13 2 -10 -2 3 -5 -13 -19 -34
-33 -22 -13 -40 -28 -40 -32 0 -5 -4 -6 -9 -2 -6 3 -15 -4 -21 -15 -6 -11 -18
-20 -26 -20 -8 0 -13 -3 -11 -7 3 -5 -1 -14 -9 -21 -8 -7 -14 -10 -14 -6 0 4
-10 -4 -22 -17 -13 -14 -23 -28 -23 -33 0 -4 -11 -14 -25 -21 -14 -8 -21 -14
-17 -15 4 0 2 -6 -5 -14 -7 -8 -16 -12 -21 -9 -4 2 -7 -2 -7 -10 0 -7 -8 -22
-18 -33 -29 -31 -92 -128 -92 -141 0 -7 -4 -13 -10 -13 -5 0 -10 -6 -10 -14 0
-7 -7 -19 -15 -26 -9 -7 -13 -15 -11 -18 3 -2 -6 -25 -20 -49 -13 -24 -22 -49
-19 -54 4 -5 1 -9 -5 -9 -6 0 -9 -4 -5 -9 3 -5 1 -12 -5 -16 -5 -3 -10 -17
-10 -31 0 -13 -4 -24 -10 -24 -5 0 -10 -11 -10 -24 0 -13 -6 -27 -12 -29 -10
-4 -9 -6 1 -6 11 -1 11 -4 1 -16 -7 -8 -10 -15 -7 -15 4 0 0 -18 -8 -40 -9
-27 -10 -40 -3 -40 7 0 7 -4 -1 -13 -6 -8 -8 -17 -4 -20 3 -4 2 -7 -3 -7 -5 0
-9 -17 -8 -37 0 -21 -4 -42 -10 -46 -8 -6 -7 -10 2 -14 6 -2 9 -10 5 -16 -12
-19 -10 -287 2 -287 5 0 3 -5 -5 -10 -8 -5 -10 -10 -5 -10 6 0 12 -21 13 -47
4 -79 6 -93 12 -93 3 0 6 -10 7 -22 3 -55 9 -86 16 -81 4 2 7 -10 7 -26 0 -17
3 -31 8 -31 4 0 8 -12 9 -26 0 -15 5 -29 11 -33 5 -3 8 -14 6 -23 -1 -10 2
-18 7 -18 6 0 8 -4 4 -9 -3 -5 -1 -12 5 -16 5 -3 10 -15 10 -26 0 -10 4 -19 9
-19 5 0 12 -7 15 -16 4 -10 2 -13 -7 -8 -6 4 -4 -2 5 -13 10 -11 18 -27 18
-37 0 -9 4 -15 9 -11 5 3 13 -5 16 -17 8 -28 53 -97 77 -119 10 -9 18 -20 18
-25 0 -5 14 -20 30 -34 16 -14 30 -33 30 -43 0 -10 4 -16 8 -13 12 7 64 -49
55 -59 -5 -4 -2 -5 5 -1 8 5 20 0 30 -11 9 -11 25 -22 35 -26 11 -4 15 -12 11
-18 -4 -8 -3 -9 4 -5 7 4 12 2 12 -4 0 -6 5 -8 10 -5 5 3 10 1 10 -5 0 -6 5
-8 10 -5 5 3 10 -1 10 -9 0 -10 6 -13 17 -9 11 4 14 3 9 -5 -4 -7 -2 -12 6
-12 7 0 24 -9 38 -20 14 -11 35 -20 48 -20 13 0 20 -4 17 -10 -5 -9 8 -12 32
-9 3 0 10 -6 15 -15 5 -8 15 -13 23 -10 8 4 15 1 15 -7 0 -7 2 -10 6 -7 3 3
27 -3 53 -13 27 -10 51 -15 55 -12 3 4 6 2 6 -3 0 -9 18 -14 63 -17 9 -1 17
-5 17 -9 0 -4 6 -5 14 -2 8 3 17 1 20 -5 4 -6 13 -8 21 -4 9 3 21 1 28 -4 6
-5 19 -9 27 -8 8 1 23 -3 33 -7 11 -6 17 -5 17 3 0 7 4 8 13 2 6 -5 21 -9 32
-8 11 0 28 -3 38 -8 10 -4 17 -4 17 2 0 7 9 7 25 1 15 -6 26 -6 30 1 4 5 12 6
18 2 18 -12 90 -11 106 1 11 8 13 8 7 -1 -5 -10 5 -13 41 -14 26 -1 54 -1 61
0 6 1 12 -3 12 -10 0 -8 4 -9 13 0 8 6 17 7 23 1 5 -5 23 -11 39 -14 17 -2 32
-5 35 -6 3 -1 9 -2 14 -1 5 1 18 -6 29 -16 11 -10 17 -12 13 -5 -4 7 8 4 28
-8 20 -11 36 -16 36 -12 0 4 4 3 8 -3 10 -15 49 -35 67 -35 8 0 15 -5 15 -10
0 -6 8 -14 17 -17 35 -14 136 -111 128 -123 -4 -6 1 -10 10 -10 11 0 15 -5 11
-16 -3 -8 -2 -12 4 -9 6 3 10 1 10 -5 0 -6 7 -18 15 -27 8 -8 13 -19 10 -24
-4 -5 -1 -9 5 -9 6 0 8 -4 5 -10 -3 -5 -1 -10 5 -10 7 0 10 -6 7 -14 -3 -7 -2
-17 3 -22 5 -5 10 -26 12 -47 1 -20 5 -37 9 -37 3 0 6 -40 5 -90 0 -49 -3 -90
-7 -90 -3 0 -5 -11 -4 -25 2 -14 0 -25 -4 -25 -4 0 -8 -9 -9 -20 -4 -43 -6
-50 -14 -50 -4 0 -7 -3 -7 -7 4 -22 -2 -43 -10 -39 -5 3 -12 -1 -15 -10 -4
-10 -2 -13 6 -8 7 4 2 -7 -11 -24 -12 -18 -20 -32 -16 -32 3 0 -7 -12 -22 -26
-15 -14 -28 -30 -28 -35 0 -5 -12 -17 -28 -27 -15 -10 -25 -21 -21 -24 3 -4
-4 -9 -15 -13 -12 -3 -21 -11 -21 -16 0 -5 -6 -9 -14 -9 -8 0 -17 -7 -20 -16
-3 -8 -10 -12 -16 -9 -5 3 -10 2 -10 -3 0 -9 -37 -25 -52 -23 -5 1 -8 -4 -8
-10 0 -6 -6 -9 -14 -6 -8 3 -17 -1 -20 -9 -3 -8 -15 -14 -26 -14 -12 0 -29 -4
-39 -10 -23 -12 -120 -32 -156 -31 -11 0 -23 -5 -27 -12 -6 -9 -8 -8 -8 2 0
11 -3 11 -15 1 -12 -10 -15 -10 -15 0 0 10 -3 10 -15 0 -12 -10 -15 -10 -15 1
0 11 -2 11 -10 -1 -7 -12 -13 -13 -28 -4 -12 8 -24 9 -34 3 -11 -6 -19 -5 -23
1 -4 7 -12 7 -24 0 -10 -5 -21 -6 -25 -3 -7 7 -25 11 -68 15 -16 1 -28 5 -28
8 0 3 -11 7 -25 8 -46 3 -55 5 -55 12 0 4 -7 7 -15 8 -8 1 -22 3 -30 4 -8 1
-15 5 -15 10 0 4 -6 8 -13 8 -18 0 -67 24 -67 33 0 4 -9 7 -20 7 -11 0 -20 4
-20 8 0 5 -12 15 -27 23 -16 8 -36 22 -45 33 -10 10 -18 16 -18 13 0 -3 -13 8
-30 25 -16 16 -30 33 -30 37 0 3 -9 14 -20 24 -12 10 -18 23 -14 29 4 6 3 8
-3 5 -5 -3 -20 12 -32 33 -12 22 -20 40 -16 40 3 0 -4 10 -15 22 -12 13 -16
24 -10 26 8 3 7 8 -1 18 -6 8 -8 14 -3 14 5 0 3 4 -4 9 -7 4 -14 22 -14 40 -1
17 -5 34 -11 38 -5 3 -3 9 4 14 10 6 11 9 2 9 -7 0 -13 7 -13 15 0 13 -4 14
-20 5 -15 -8 -20 -8 -20 2 0 9 -3 9 -10 -2 -5 -8 -10 -10 -10 -5 0 6 -22 10
-50 10 -27 0 -50 -3 -50 -7 0 -4 -13 -3 -30 2 -17 5 -30 5 -30 0 0 -5 -13 -5
-30 0 -17 5 -30 5 -30 0 0 -5 -13 -5 -30 0 -17 5 -30 5 -30 0 0 -5 -13 -5 -30
0 -17 5 -30 5 -30 0 0 -5 -13 -5 -30 0 -18 5 -30 5 -30 0 0 -6 -10 -6 -25 0
-15 6 -25 6 -25 0 0 -5 -12 -5 -30 0 -18 5 -32 5 -36 -1 -3 -5 -9 -7 -13 -4
-5 2 -8 -6 -8 -20 0 -14 4 -22 10 -18 6 4 7 1 1 -8 -12 -20 -14 -39 -3 -39 6
0 6 -7 0 -19 -6 -10 -7 -21 -4 -25 8 -7 13 -28 17 -66 2 -14 6 -32 10 -40 3
-8 7 -29 9 -47 2 -17 9 -38 15 -46 7 -8 9 -17 5 -20 -3 -4 -1 -7 5 -7 6 0 9
-6 6 -14 -3 -8 0 -17 5 -21 6 -3 9 -11 6 -16 -4 -5 -1 -9 4 -9 6 0 11 -9 11
-20 0 -11 5 -20 11 -20 5 0 8 -4 4 -9 -3 -5 -1 -12 5 -16 6 -4 8 -10 5 -15 -3
-4 2 -11 11 -14 8 -3 13 -10 10 -15 -4 -5 1 -17 10 -25 8 -9 12 -16 8 -16 -4
0 2 -8 12 -17 10 -10 20 -25 22 -33 2 -8 13 -23 25 -32 12 -10 18 -18 13 -18
-5 0 3 -10 17 -23 15 -12 27 -26 27 -31 0 -12 27 -36 34 -29 3 4 6 -1 6 -10 0
-10 6 -17 14 -17 8 0 18 -9 21 -20 4 -11 10 -18 14 -16 9 6 41 -30 35 -38 -2
-3 -1 -4 2 -1 4 2 24 -9 44 -25 20 -16 40 -27 44 -23 3 3 6 -2 6 -13 0 -16 2
-17 10 -4 8 13 10 12 10 -2 0 -10 7 -18 15 -18 8 0 15 -4 15 -10 0 -5 3 -9 8
-8 13 2 82 -32 82 -42 0 -5 7 -7 15 -4 8 4 15 2 15 -3 0 -9 123 -57 136 -53 4
1 10 -3 13 -9 4 -6 19 -12 34 -13 15 -1 27 -5 27 -9 0 -4 11 -6 25 -5 15 2 22
-1 18 -7 -4 -6 0 -8 10 -4 10 3 17 2 17 -2 0 -5 11 -8 25 -6 14 1 28 -2 31 -6
3 -5 16 -7 30 -5 13 3 24 1 24 -3 0 -4 15 -8 33 -10 80 -7 92 -9 92 -11 0 -7
332 -5 342 2 6 5 14 5 18 -2 3 -6 12 -7 18 -3 13 8 23 10 79 16 21 2 41 6 44
10 3 3 12 3 20 0 8 -3 14 0 14 7 0 6 5 8 10 5 6 -3 15 -3 22 1 7 4 24 9 38 11
59 6 72 10 80 22 6 11 9 11 13 0 4 -11 6 -11 6 -1 1 7 6 10 11 7 6 -3 10 -2
10 2 0 5 12 10 28 11 15 1 29 7 30 12 2 6 8 8 13 4 5 -3 9 -1 9 5 0 6 7 8 15
5 8 -4 15 -1 15 6 0 6 5 8 10 5 6 -3 10 -1 10 4 0 6 3 10 8 10 21 -4 32 2 26
14 -5 7 -2 7 10 -2 15 -12 17 -12 14 0 -2 8 4 13 15 13 9 -1 17 5 17 13 0 8 4
12 9 9 8 -6 63 31 69 46 2 5 8 5 13 2 6 -3 21 6 33 19 13 14 27 23 30 20 3 -4
6 -1 6 5 0 7 7 12 16 12 8 0 12 5 9 10 -3 6 -2 10 3 10 9 0 112 95 112 104 0
3 16 22 35 43 19 21 35 44 35 51 0 6 4 12 9 12 5 0 13 9 16 20 4 11 11 17 17
14 7 -5 8 -2 3 6 -4 7 -4 15 1 19 16 11 54 88 47 95 -3 3 -1 6 6 6 7 0 9 5 6
10 -3 6 -1 10 4 10 6 0 11 12 11 26 0 16 4 23 12 18 6 -4 9 -3 6 2 -3 5 -1 20
5 34 6 14 11 33 12 43 2 9 3 18 5 20 1 1 3 9 5 17 18 71 22 90 18 90 -3 0 0 7
7 15 10 12 10 15 0 15 -8 0 -9 4 -3 13 5 6 11 37 12 67 2 30 5 58 7 62 3 5 -1
8 -8 8 -11 0 -11 2 0 8 10 7 10 15 2 37 -9 24 -8 26 3 16 12 -9 13 -7 9 14 -2
14 -9 22 -16 19 -6 -3 -2 2 8 10 13 11 15 16 6 16 -7 0 -10 3 -7 6 3 4 2 15
-4 25 -7 14 -6 19 3 19 8 0 9 3 3 8 -5 4 -10 18 -9 32 0 14 -4 31 -10 39 -9
12 -8 13 2 7 11 -7 12 -4 3 13 -7 12 -11 27 -10 34 3 24 -1 38 -10 33 -4 -3
-6 6 -3 19 2 14 0 25 -6 25 -6 0 -8 9 -5 20 3 11 0 20 -6 20 -6 0 -10 3 -10 8
1 4 0 10 -1 15 -1 4 -3 10 -4 15 -5 17 -31 69 -49 95 -10 15 -15 27 -11 27 4
0 -1 8 -12 19 -10 10 -26 29 -34 41 -8 13 -23 30 -32 39 -10 8 -18 21 -18 29
0 7 -4 11 -8 8 -5 -3 -14 4 -22 14 -8 10 -17 17 -22 14 -4 -3 -8 3 -8 12 0 10
-3 15 -6 12 -3 -3 -15 4 -28 16 -50 47 -85 73 -91 67 -4 -3 -11 2 -16 12 -6 9
-14 15 -20 12 -5 -4 -12 1 -15 9 -3 9 -10 13 -15 10 -5 -3 -9 -1 -9 3 0 5 -18
16 -40 26 -28 12 -40 23 -40 38 0 22 24 52 34 42 3 -4 6 -1 6 5 0 7 9 12 20
12 11 0 20 5 20 10 0 6 6 10 13 10 6 0 36 18 65 40 29 22 57 40 63 40 6 0 8 4
5 8 -2 4 9 17 25 27 16 11 29 26 29 33 0 7 5 10 10 7 6 -3 10 -2 10 3 0 5 16
26 35 46 19 20 34 40 35 44 0 4 5 14 12 22 7 9 24 36 37 60 14 25 29 48 34 51
5 3 8 8 7 10 -1 2 3 15 8 29 5 14 11 30 12 35 1 6 6 15 12 22 5 7 7 16 4 22
-4 5 0 15 7 23 8 7 13 21 11 31 -1 9 2 17 8 17 5 0 8 10 6 23 -2 15 2 21 11
19 12 -3 12 0 1 12 -7 10 -8 16 -2 16 6 0 9 9 7 20 -2 11 -1 20 3 20 4 0 8 8
9 18 3 57 8 88 16 100 6 8 6 12 -2 12 -8 0 -9 6 -3 18 10 20 9 273 -1 290 -4
6 -3 13 3 17 7 4 5 13 -4 27 -8 11 -12 27 -9 34 3 8 -1 22 -8 31 -12 14 -12
16 1 8 13 -7 13 -6 2 7 -7 9 -12 22 -11 30 1 7 -3 26 -10 42 -6 15 -12 39 -13
51 -1 13 -6 21 -10 19 -7 -5 -13 36 -9 59 1 5 -3 6 -8 3 -11 -7 -24 22 -15 35
3 5 0 9 -5 9 -6 0 -11 7 -11 15 0 8 -3 15 -8 15 -7 0 -32 49 -31 63 0 5 -9 17
-20 26 -12 10 -21 23 -21 30 0 6 -5 11 -11 11 -6 0 -8 7 -5 16 3 9 2 12 -5 9
-6 -4 -13 2 -16 14 -3 11 -9 18 -14 15 -5 -3 -9 1 -9 9 0 8 -7 18 -16 21 -9 3
-14 13 -11 20 3 8 2 16 -4 18 -8 3 3 18 61 86 11 13 20 28 20 33 0 5 6 12 14
15 8 3 17 17 21 32 5 20 8 23 16 11 7 -12 9 -12 9 2 0 8 9 25 21 37 11 13 17
28 13 35 -4 6 -4 9 0 5 12 -10 58 40 50 54 -4 6 -3 9 2 6 5 -2 19 6 31 18 14
15 17 25 10 28 -9 3 -8 5 1 5 6 1 12 10 12 22 0 11 -4 18 -9 15 -5 -3 -14 1
-21 9 -7 8 -18 15 -26 15 -7 0 -15 9 -19 20 -3 11 -9 19 -13 19 -18 -3 -30 3
-59 30 -18 16 -29 31 -26 35 3 3 -4 3 -16 1 -12 -2 -20 -1 -17 3 2 4 -2 13
-10 20 -8 7 -14 9 -14 5 0 -4 -5 0 -11 10 -5 9 -17 17 -25 17 -9 0 -12 5 -8
12 4 6 3 8 -4 5 -5 -4 -26 8 -45 27 -20 19 -38 32 -41 28 -3 -3 -6 0 -6 7 0 7
-3 10 -7 8 -10 -5 -43 30 -35 37 6 7 3 7 -18 -1z m-935 -343 c12 5 25 7 27 5
2 -2 27 -5 56 -6 29 -2 55 -6 58 -11 3 -4 14 -3 25 2 10 6 19 7 19 2 0 -5 11
-8 25 -7 14 2 25 -1 25 -6 0 -4 7 -6 16 -2 9 3 20 0 25 -8 7 -12 9 -12 9 1 0
10 3 11 8 4 4 -7 21 -13 37 -15 17 -2 35 -6 40 -10 6 -3 31 -12 58 -20 26 -7
47 -17 47 -21 0 -4 9 -8 21 -8 11 0 18 -4 14 -9 -3 -6 4 -8 15 -6 11 2 20 -1
20 -7 0 -5 7 -7 16 -4 8 3 12 2 9 -4 -3 -6 1 -10 9 -10 9 0 16 -5 16 -12 0 -6
3 -9 6 -5 6 5 15 0 48 -30 8 -7 16 -9 20 -6 3 3 8 -2 12 -11 3 -9 12 -16 19
-16 7 0 16 -7 19 -16 4 -9 9 -14 12 -11 4 3 20 -7 36 -23 16 -17 34 -30 39
-30 5 0 9 -7 9 -15 0 -8 6 -14 13 -12 6 1 11 -4 10 -10 -2 -7 1 -13 5 -13 11
0 52 -35 52 -44 0 -4 11 -17 25 -30 13 -13 22 -26 18 -29 -3 -4 2 -7 11 -7 10
0 16 -5 14 -12 -2 -6 3 -20 11 -29 32 -35 41 -48 41 -59 0 -5 4 -10 9 -10 8 0
21 -34 18 -46 -1 -3 6 -10 16 -15 9 -6 17 -17 17 -25 0 -8 8 -29 17 -47 9 -18
18 -41 20 -52 2 -10 7 -22 11 -25 4 -3 7 -14 7 -25 0 -11 4 -26 9 -34 10 -13
14 -28 18 -63 1 -10 5 -18 8 -18 4 0 7 -6 7 -12 3 -67 9 -98 17 -98 6 0 4 -5
-4 -10 -8 -5 -10 -10 -4 -10 12 0 13 -238 1 -257 -5 -8 -3 -13 5 -13 10 0 10
-2 0 -9 -8 -4 -13 -11 -13 -15 5 -33 -1 -76 -9 -71 -5 3 -7 0 -4 -8 3 -8 0
-35 -7 -58 -7 -24 -12 -47 -11 -51 1 -5 -2 -8 -8 -8 -5 0 -7 -7 -4 -15 4 -8 1
-15 -6 -15 -6 0 -9 -4 -5 -9 3 -5 1 -12 -5 -16 -6 -4 -8 -10 -5 -15 3 -5 1
-11 -5 -15 -6 -4 -8 -11 -5 -16 4 -5 1 -9 -4 -9 -6 0 -11 -3 -10 -7 2 -16 -14
-53 -23 -53 -5 0 -6 -4 -3 -10 3 -5 1 -10 -5 -10 -6 0 -8 -5 -5 -11 4 -6 -2
-19 -14 -30 -12 -11 -21 -26 -21 -35 0 -8 -7 -17 -15 -20 -8 -4 -15 -12 -15
-20 0 -8 -4 -14 -10 -14 -5 0 -10 -7 -10 -15 0 -8 -16 -27 -35 -42 -19 -15
-35 -33 -35 -40 0 -7 -9 -17 -20 -23 -11 -6 -18 -15 -15 -21 4 -5 -1 -9 -9 -9
-8 0 -18 -9 -21 -20 -4 -11 -10 -18 -14 -16 -4 3 -26 -13 -49 -35 -23 -21 -47
-39 -52 -39 -6 0 -10 -7 -10 -16 0 -8 -4 -12 -10 -9 -5 3 -19 -3 -31 -14 -12
-11 -25 -18 -29 -16 -5 3 -11 -2 -14 -11 -3 -8 -10 -12 -16 -9 -5 3 -10 1 -10
-5 0 -6 -4 -8 -10 -5 -5 3 -10 2 -10 -3 0 -10 -60 -38 -72 -34 -5 1 -8 -2 -8
-7 0 -11 -90 -43 -90 -33 0 4 -5 -1 -11 -10 -5 -10 -15 -18 -20 -18 -6 0 -7 5
-3 11 3 6 -6 3 -22 -7 -21 -14 -26 -15 -19 -4 7 13 6 13 -7 2 -15 -12 -40 -20
-85 -27 -11 -2 -31 -6 -43 -10 -17 -6 -21 -4 -14 6 6 11 5 11 -9 0 -22 -17
-166 -23 -186 -7 -11 8 -13 8 -8 0 4 -7 -12 -10 -48 -10 -30 1 -55 3 -55 7 0
3 -10 5 -22 6 -42 2 -88 10 -95 16 -3 4 -19 7 -34 7 -15 0 -31 5 -34 10 -4 6
-10 8 -15 5 -5 -3 -11 -1 -14 4 -4 5 -14 8 -23 7 -10 -2 -24 3 -31 11 -8 7
-18 11 -23 8 -5 -4 -9 -1 -9 4 0 6 -3 11 -7 10 -16 -2 -53 14 -53 23 0 5 -5 6
-11 3 -6 -4 -17 1 -25 11 -9 11 -13 13 -9 4 4 -10 2 -9 -8 2 -8 10 -17 15 -20
11 -4 -3 -7 -1 -7 6 0 7 -4 9 -10 6 -5 -3 -10 -2 -10 4 0 10 -38 27 -52 23 -5
-1 -8 4 -8 11 0 8 -11 19 -25 25 -14 6 -25 16 -25 22 0 5 -6 10 -14 10 -17 0
-162 138 -158 151 1 5 -5 9 -13 9 -8 0 -15 4 -15 8 0 8 -12 24 -50 70 -6 6 -8
12 -4 12 4 0 -6 12 -22 26 -16 15 -22 23 -14 18 8 -4 5 4 -8 20 -12 16 -19 32
-16 37 3 5 1 9 -5 9 -5 0 -15 16 -22 35 -7 19 -17 35 -21 35 -4 0 -7 3 -6 8 1
4 -3 17 -10 30 -7 12 -10 22 -6 22 3 0 1 6 -5 13 -6 8 -8 17 -4 20 3 4 1 7 -5
7 -7 0 -12 11 -12 25 0 14 -4 25 -9 25 -6 0 -8 9 -6 20 2 11 0 20 -6 20 -5 0
-9 5 -9 11 0 5 6 7 13 3 8 -6 8 -3 -1 9 -8 9 -10 22 -6 28 5 8 3 9 -6 4 -10
-6 -12 -4 -7 8 3 9 2 19 -4 23 -7 4 -7 10 0 18 6 7 6 17 1 26 -5 8 -6 18 -4
22 3 4 1 8 -4 8 -10 0 -8 42 4 61 4 7 3 10 -3 6 -7 -4 -11 20 -11 68 0 56 2
73 11 68 7 -4 7 0 -1 10 -8 9 -11 25 -8 35 4 11 7 36 8 55 1 20 4 35 7 33 3
-2 7 16 8 40 0 24 8 57 16 74 9 17 12 28 7 25 -5 -3 -3 8 3 24 6 17 15 27 19
25 5 -3 7 6 4 20 -3 14 0 26 6 26 5 0 8 6 5 14 -3 8 1 17 8 20 8 3 12 12 9 21
-3 8 -1 15 5 15 6 0 11 6 11 14 0 7 10 26 22 42 13 15 17 25 10 21 -8 -6 -10
-3 -6 7 3 9 10 13 15 10 5 -3 9 2 9 10 0 9 9 25 19 35 11 11 17 22 13 25 -3 3
0 6 7 6 7 0 10 4 7 8 -3 5 3 16 12 25 28 26 42 45 42 57 0 6 5 8 10 5 6 -3 10
-1 10 4 0 6 17 28 37 48 21 21 36 41 35 46 -1 4 1 6 5 5 5 -2 19 7 33 20 14
13 32 29 41 37 9 8 20 15 26 15 6 0 14 7 17 16 4 9 9 14 12 11 4 -3 12 -1 19
6 27 26 55 47 55 41 0 -3 7 2 16 10 8 9 20 14 25 11 5 -4 9 -1 9 5 0 6 5 8 10
5 6 -3 13 0 16 9 3 8 14 13 25 11 10 -2 19 0 19 4 0 11 42 29 63 25 9 -1 15 2
11 7 -3 5 1 10 8 11 14 1 28 4 41 8 4 1 10 3 15 5 4 1 14 4 22 8 32 12 81 22
126 26 9 1 12 6 8 14 -6 9 -5 9 8 0 8 -7 17 -11 19 -8 3 2 26 6 52 9 32 3 47
1 47 -7 0 -7 6 -3 12 8 7 12 13 15 15 8 3 -8 12 -9 28 -3z"/>
<path d="M2263 11313 c3 -4 -36 -8 -86 -9 -104 0 -157 -5 -157 -14 0 -4 -10
-6 -22 -5 -13 1 -27 -1 -33 -6 -11 -8 -16 -9 -41 -9 -9 0 -12 -5 -8 -12 4 -6
3 -8 -3 -5 -12 8 -75 -12 -84 -25 -3 -5 -15 -10 -27 -11 -12 0 -24 -7 -27 -15
-3 -8 -12 -11 -21 -8 -9 3 -12 2 -9 -5 4 -6 -2 -13 -14 -16 -12 -3 -21 -9 -21
-14 0 -5 -7 -9 -15 -9 -7 0 -19 -8 -24 -17 -6 -10 -11 -14 -11 -10 0 16 -150
-144 -150 -161 0 -15 -2 -15 -10 -2 -8 13 -10 13 -10 -1 0 -9 -9 -28 -20 -41
-10 -14 -16 -28 -13 -32 3 -3 1 -6 -6 -6 -7 0 -9 -4 -6 -10 3 -5 3 -10 -2 -10
-9 0 -39 -61 -35 -72 1 -5 -3 -8 -10 -8 -6 0 -8 -3 -5 -7 4 -3 0 -17 -8 -30
-9 -13 -13 -23 -10 -23 3 0 -1 -16 -9 -35 -11 -26 -12 -35 -3 -35 9 0 8 -3 -1
-9 -7 -4 -14 -24 -15 -44 -1 -21 -6 -37 -12 -37 -5 0 -3 -5 5 -10 13 -9 13
-10 0 -10 -13 0 -13 -1 0 -10 13 -9 13 -10 0 -10 -13 0 -13 -1 0 -10 11 -7 11
-10 2 -10 -15 0 -13 -41 3 -52 6 -5 6 -8 -1 -8 -7 0 -12 -15 -12 -35 0 -19 4
-35 8 -35 5 0 7 -12 6 -27 -2 -16 1 -34 6 -40 7 -9 7 -13 -2 -13 -9 0 -10 -3
-1 -13 6 -8 8 -17 4 -20 -3 -4 -1 -7 6 -7 7 0 9 -5 6 -10 -4 -6 -2 -16 3 -23
5 -7 8 -20 7 -29 -2 -10 1 -18 5 -18 5 0 11 -13 15 -30 4 -16 10 -30 14 -30 4
0 7 -10 8 -21 1 -12 9 -29 17 -38 9 -10 16 -22 16 -28 0 -5 11 -22 24 -36 13
-14 21 -28 18 -31 -3 -3 0 -6 6 -6 7 0 12 -6 12 -14 0 -8 7 -17 16 -20 8 -3
12 -10 9 -16 -3 -5 1 -10 9 -10 8 0 18 -9 21 -20 3 -11 9 -20 13 -20 11 0 66
-50 56 -50 -5 0 1 -6 12 -13 12 -6 46 -29 76 -49 31 -21 63 -38 72 -38 10 0
14 -5 11 -10 -4 -6 -3 -10 2 -9 8 2 21 -2 90 -32 30 -12 43 -14 47 -6 2 7 5 4
5 -5 1 -11 6 -15 16 -12 8 3 20 2 27 -2 7 -5 22 -9 33 -9 11 0 25 -3 30 -6 6
-3 22 -5 38 -4 15 1 27 -2 27 -7 0 -5 9 -4 19 2 11 5 22 6 25 2 3 -5 27 -6 53
-4 26 2 58 5 71 5 12 1 22 6 22 12 0 5 5 3 10 -5 5 -8 10 -10 10 -4 0 6 12 12
28 13 67 4 77 7 85 18 4 6 16 10 27 8 11 -2 20 0 20 5 0 5 12 13 28 16 30 7
84 34 93 47 3 5 9 8 13 8 20 -3 26 0 21 9 -3 6 1 10 9 10 8 0 24 10 36 22 11
12 20 18 20 14 0 -4 11 4 23 18 13 14 26 24 29 21 2 -3 11 6 18 20 7 14 20 25
27 25 8 0 11 5 8 10 -3 6 1 10 10 10 9 0 14 4 11 8 -3 5 4 15 15 22 10 8 19
19 19 25 0 6 10 21 23 35 13 14 30 39 38 55 9 17 20 39 26 50 22 41 45 103 57
153 3 9 5 17 7 17 2 0 9 44 10 72 1 13 6 20 11 17 6 -4 5 3 -1 15 -7 11 -8 21
-4 21 4 0 8 38 8 85 0 47 -4 85 -9 85 -4 0 -2 8 5 17 12 14 12 16 0 8 -11 -6
-13 -4 -8 7 3 9 -1 27 -8 42 -8 15 -10 24 -4 20 11 -6 9 27 -2 36 -4 3 -9 16
-10 30 -2 14 -9 31 -16 38 -7 7 -10 19 -7 26 3 8 1 17 -5 21 -6 3 -11 15 -11
26 0 13 -4 18 -12 13 -8 -5 -9 -2 -5 9 3 10 3 17 -2 17 -5 0 -12 11 -15 25 -4
14 -11 25 -16 25 -6 0 -10 5 -10 11 0 7 -8 18 -17 26 -12 10 -13 12 -3 8 8 -4
6 1 -5 10 -11 9 -19 21 -17 26 1 5 -2 9 -7 9 -5 0 -13 9 -16 20 -4 11 -11 18
-16 15 -5 -4 -13 4 -18 17 -6 13 -10 20 -10 16 -1 -3 -16 8 -34 25 -19 18 -44
39 -57 47 -12 8 -31 23 -41 34 -9 10 -22 15 -28 11 -6 -3 -11 1 -11 10 0 9 -4
13 -10 10 -5 -3 -10 -1 -10 4 0 6 -9 11 -20 11 -11 0 -20 5 -20 10 0 6 -3 9
-7 9 -22 -4 -33 2 -27 14 4 6 4 9 0 5 -5 -4 -20 -2 -35 4 -14 5 -37 12 -51 15
-13 2 -27 7 -30 11 -3 4 -15 7 -27 6 -13 -1 -23 1 -23 5 0 3 -16 7 -36 9 -19
1 -45 7 -56 13 -11 6 -18 7 -15 2z m277 -153 c0 -5 5 -10 11 -10 16 0 39 -26
39 -44 0 -9 7 -16 16 -16 9 0 12 -5 8 -12 -4 -7 -3 -8 4 -4 7 4 12 14 12 22 0
10 5 12 13 8 9 -6 9 -5 0 7 -6 8 -9 20 -4 27 5 8 11 6 21 -8 8 -11 19 -20 25
-20 6 0 18 -8 27 -17 9 -10 30 -30 46 -45 17 -14 28 -29 25 -32 -4 -3 -1 -6 6
-6 12 0 48 -31 44 -37 -8 -10 -1 -23 12 -23 8 0 17 -11 21 -25 3 -14 10 -25
15 -25 5 0 9 -7 9 -15 0 -8 5 -15 10 -15 6 0 10 -7 10 -16 0 -9 5 -12 12 -8 7
4 8 3 4 -5 -4 -6 -2 -18 4 -26 6 -8 9 -18 6 -24 -3 -5 1 -12 10 -15 8 -3 13
-10 10 -15 -3 -5 1 -23 10 -40 9 -18 14 -35 11 -38 -4 -3 0 -11 7 -18 7 -8 12
-30 11 -49 -1 -20 2 -36 6 -36 5 0 5 -7 2 -17 -4 -9 -2 -14 3 -11 8 6 9 -18 5
-165 -1 -28 -4 -36 -13 -31 -10 6 -10 4 -2 -7 9 -12 11 -33 5 -41 -5 -6 -14
-55 -15 -80 -1 -14 -4 -24 -7 -22 -8 4 -22 -33 -22 -58 0 -10 -4 -15 -8 -12
-5 3 -9 -4 -9 -15 0 -12 -4 -21 -10 -21 -5 0 -7 -7 -4 -15 4 -8 1 -15 -5 -15
-6 0 -11 -10 -11 -22 0 -12 -3 -18 -7 -15 -9 10 -35 -31 -28 -43 3 -6 -1 -10
-9 -10 -15 0 -21 -12 -17 -33 1 -5 -2 -6 -7 -3 -5 3 -15 -6 -22 -19 -7 -13
-17 -22 -22 -19 -4 3 -8 -2 -8 -10 0 -9 -7 -16 -16 -16 -8 0 -13 -3 -11 -7 4
-8 -30 -45 -36 -40 -2 1 -18 -11 -35 -28 -18 -16 -38 -30 -45 -30 -6 -1 -11
-7 -9 -14 1 -7 -2 -10 -8 -6 -5 3 -10 1 -10 -5 0 -6 -4 -8 -10 -5 -5 3 -10 2
-10 -4 0 -5 -13 -12 -30 -16 -16 -4 -30 -11 -30 -16 0 -5 -9 -9 -20 -9 -11 0
-20 -5 -20 -12 0 -6 -3 -8 -7 -5 -3 4 -13 1 -21 -6 -13 -10 -14 -9 -7 3 6 11
3 10 -12 -3 -11 -9 -22 -15 -25 -11 -3 3 -21 -1 -39 -8 -19 -8 -46 -13 -61
-13 -16 1 -28 -3 -28 -8 0 -5 -6 -4 -14 2 -10 9 -16 9 -21 1 -9 -14 -125 -11
-144 4 -11 8 -13 8 -7 -1 7 -13 -16 -12 -79 3 -16 4 -38 7 -47 8 -10 0 -18 3
-18 6 0 4 -7 7 -15 8 -8 1 -22 3 -30 4 -8 1 -15 5 -15 10 0 5 -4 6 -10 3 -5
-3 -10 -1 -10 5 0 6 -5 8 -12 4 -6 -4 -17 1 -25 11 -9 14 -13 15 -13 4 0 -10
-3 -11 -8 -2 -4 6 -14 13 -22 15 -8 2 -26 13 -40 26 -13 12 -30 22 -36 22 -6
0 -19 9 -29 20 -10 11 -22 17 -26 14 -5 -3 -9 2 -9 10 0 9 -7 16 -15 16 -9 0
-18 7 -21 15 -4 8 -10 12 -15 9 -5 -3 -8 0 -7 8 2 7 -4 12 -12 10 -8 -2 -12 0
-8 4 4 4 -5 20 -21 35 -16 15 -27 30 -23 33 3 3 0 6 -6 6 -7 0 -12 7 -12 15 0
7 -8 19 -17 24 -10 6 -14 11 -10 11 5 0 1 7 -7 16 -9 8 -14 19 -11 24 3 5 0
12 -6 16 -8 5 -10 2 -5 -7 4 -8 1 -5 -8 5 -21 26 -9 42 15 20 10 -9 19 -13 19
-9 0 8 27 -20 72 -75 23 -27 29 -30 34 -17 3 9 10 14 16 11 5 -3 3 7 -6 24 -8
16 -12 32 -9 36 4 3 0 6 -7 6 -7 0 -10 3 -7 6 3 4 2 15 -4 25 -7 13 -6 19 1
19 6 0 8 5 5 10 -8 12 18 40 37 40 17 0 36 30 32 53 -1 9 1 17 6 17 5 0 7 8 5
18 -2 9 -4 20 -4 23 -1 4 -17 3 -36 -1 -20 -5 -33 -4 -29 1 3 5 1 9 -4 9 -12
0 -45 67 -49 100 -3 24 -3 24 12 6 8 -11 15 -25 15 -31 0 -5 12 -23 26 -39
l27 -28 32 33 c18 19 40 40 49 47 9 7 14 17 11 23 -4 5 -1 9 6 9 7 0 9 3 6 6
-3 4 -2 16 4 27 8 14 8 18 0 13 -7 -4 -11 0 -11 12 0 14 -7 18 -32 17 -21 0
-32 -5 -30 -13 2 -10 -2 -10 -17 0 -22 14 -35 48 -18 48 6 0 3 6 -8 13 -24 19
-11 41 16 27 11 -6 18 -14 15 -18 -10 -18 34 -35 50 -19 4 4 12 7 18 7 6 0 4
-5 -4 -10 -12 -8 -11 -10 8 -10 12 0 22 -4 22 -8 0 -5 7 -9 15 -9 8 0 15 4 15
8 0 4 10 9 23 11 15 2 28 -6 42 -27 13 -18 29 -30 42 -29 16 1 24 -8 34 -40 7
-23 16 -43 20 -46 4 -3 9 -21 10 -40 5 -45 22 -65 46 -51 10 6 14 11 9 11 -5
0 -3 7 4 15 7 8 9 15 6 15 -4 0 -2 8 3 19 6 10 7 21 4 25 -14 14 -9 46 9 52
10 3 18 8 18 12 0 14 52 62 61 57 5 -4 9 -2 9 3 0 15 35 3 59 -19 11 -10 25
-19 31 -19 6 0 9 -4 6 -9 -3 -4 3 -19 14 -31 11 -13 20 -31 20 -42 0 -10 5
-18 11 -18 8 0 7 -6 -2 -17 -11 -13 -11 -15 -1 -9 10 6 13 3 10 -11 -2 -11 3
-27 11 -36 7 -10 10 -17 6 -17 -5 0 2 -8 13 -19 12 -10 18 -21 14 -25 -4 -4 0
-6 8 -4 8 2 14 -2 13 -8 -1 -6 4 -11 11 -11 21 0 11 37 -17 61 -15 13 -24 26
-20 30 3 3 2 6 -4 6 -6 0 -13 17 -15 38 -2 26 1 39 9 39 7 0 13 -4 13 -9 0 -5
4 -7 8 -4 10 6 43 -30 35 -38 -4 -3 4 -6 16 -6 12 0 19 4 16 10 -3 5 5 20 18
33 19 20 21 28 13 48 -12 27 -26 40 -38 33 -4 -3 -8 1 -9 8 0 7 -2 20 -4 28
-1 10 5 16 16 17 11 1 19 -2 19 -8 0 -5 10 -9 23 -9 16 0 18 3 9 9 -11 7 -11
9 1 14 8 3 19 1 25 -5 6 -6 14 0 23 20 7 17 17 28 21 26 4 -3 8 2 8 10 0 9 7
16 16 16 8 0 12 5 9 10 -3 6 -1 10 5 10 17 0 7 70 -15 107 -10 18 -22 30 -27
27 -5 -3 -8 -2 -7 3 3 20 -2 33 -14 33 -22 0 -37 36 -23 55 11 15 14 16 27 2
11 -10 20 -12 32 -5 14 8 17 4 17 -22 0 -18 4 -29 10 -25 6 3 10 1 10 -5 0 -6
4 -9 9 -6 4 3 13 -6 20 -20 9 -21 14 -24 26 -14 13 11 10 40 -4 40 -5 0 -14
18 -21 41 -12 35 -12 42 1 50 11 7 11 9 1 9 -18 0 -9 25 9 25 8 1 18 -4 22
-10 6 -6 7 -4 4 6 -3 9 0 22 6 29 9 10 9 11 -1 6 -9 -5 -11 2 -7 29 3 29 -1
42 -20 61 -14 14 -25 29 -25 35 0 6 -4 7 -10 4 -5 -3 -10 -1 -10 6 0 7 -3 9
-6 6 -4 -3 -15 -2 -25 4 -14 7 -19 6 -20 -3 0 -10 -2 -10 -6 0 -2 6 -8 10 -13
7 -11 -7 -22 43 -15 66 5 15 10 17 19 10 7 -6 16 -8 19 -4 4 3 7 0 7 -7 0 -7
3 -10 8 -6 17 17 -2 59 -23 49 -5 -2 -1 3 9 11 23 18 36 20 36 6z m-1096 -533
c3 3 6 1 6 -6 0 -7 5 -9 10 -6 6 3 10 -1 10 -9 0 -9 5 -16 10 -16 18 0 11 -19
-19 -49 -16 -17 -34 -37 -38 -46 -8 -14 -13 -12 -39 10 -16 14 -24 25 -17 25
8 0 11 13 9 35 -2 19 0 33 4 30 8 -5 25 24 21 38 -1 4 7 3 18 -2 10 -6 21 -7
25 -4z"/>
<path d="M2706 10893 c-4 -4 -15 -8 -24 -8 -10 0 -16 -9 -17 -27 -2 -23 2 -28
22 -28 15 0 23 5 20 13 -2 6 0 22 4 35 9 23 7 27 -5 15z"/>
<path d="M2693 10783 c0 -18 -5 -39 -11 -46 -7 -8 -9 -17 -5 -20 3 -4 1 -7 -5
-7 -13 0 -42 -28 -42 -41 0 -6 5 -7 12 -3 8 5 9 2 5 -10 -4 -10 -7 -20 -7 -22
0 -3 -5 -2 -12 2 -7 4 -8 3 -4 -4 4 -7 14 -12 23 -12 9 0 13 3 10 6 -3 4 -2
15 3 25 7 12 6 19 -3 22 -6 2 -9 7 -5 11 3 4 16 3 27 -4 17 -9 22 -8 27 5 3 8
10 12 15 9 5 -3 5 6 -1 20 -6 17 -6 26 3 30 7 2 4 5 -5 5 -10 1 -18 6 -18 12
0 5 4 8 8 5 4 -2 8 4 8 14 0 10 -3 17 -7 14 -4 -2 -9 2 -12 8 -3 7 -5 -1 -4
-19z"/>
<path d="M2563 10403 c-18 -7 -16 -24 4 -38 13 -9 13 -14 3 -20 -9 -6 -11 -4
-5 5 6 9 4 11 -5 5 -10 -6 -7 -12 11 -26 13 -9 27 -15 32 -12 5 3 7 -7 5 -23
-2 -17 -10 -28 -21 -30 -30 -4 -30 -11 0 -18 21 -6 24 -9 12 -17 -11 -7 -11
-9 4 -9 13 0 17 7 15 28 -1 15 1 33 5 39 11 18 -4 45 -21 38 -13 -5 -13 -3 -1
12 8 9 9 14 3 10 -14 -8 -24 15 -19 43 4 20 0 23 -22 13z"/>
<path d="M2470 10220 c-14 -15 -28 -26 -32 -23 -5 2 -8 -1 -8 -7 0 -7 -8 -9
-21 -5 -15 5 -19 4 -15 -4 4 -6 3 -11 -2 -11 -13 0 -2 -51 12 -55 54 -16 66
-15 66 5 0 12 5 18 10 15 6 -3 10 1 10 9 0 9 5 16 11 16 6 0 9 8 7 18 -2 9 2
22 8 27 9 8 8 14 -4 27 -16 15 -19 14 -42 -12z"/>
<path d="M2204 10215 c11 -8 17 -15 13 -15 -4 0 7 -13 24 -29 16 -16 31 -38
32 -49 1 -13 6 -18 16 -14 8 3 12 1 8 -4 -3 -5 5 -11 18 -12 30 -2 40 12 21
31 -8 8 -12 18 -8 23 4 5 0 3 -9 -4 -14 -11 -18 -9 -23 13 -4 14 -14 29 -23
32 -9 4 -25 15 -35 25 -10 10 -26 18 -35 18 -16 -1 -16 -2 1 -15z"/>
<path d="M2553 10173 c-17 -6 -17 -20 0 -20 8 0 14 6 14 14 0 7 -1 13 -1 12
-1 0 -7 -3 -13 -6z"/>
<path d="M2582 10160 c0 -14 2 -19 5 -12 2 6 2 18 0 25 -3 6 -5 1 -5 -13z"/>
<path d="M2514 10149 c-3 -5 -2 -13 1 -19 3 -5 -1 -10 -9 -10 -9 0 -16 -5 -16
-11 0 -5 5 -7 12 -3 7 5 9 2 6 -7 -4 -9 2 -14 18 -15 26 -2 29 3 14 26 -7 11
-4 16 10 20 18 5 17 6 -5 17 -14 6 -27 7 -31 2z"/>
<path d="M2650 10140 c-11 -7 -11 -10 -2 -10 7 0 10 -5 7 -10 -4 -6 -12 -8
-18 -4 -7 3 5 -10 26 -29 32 -30 36 -37 22 -44 -14 -8 -13 -11 6 -29 12 -10
19 -13 15 -6 -5 8 0 12 14 12 15 0 20 -5 17 -14 -3 -8 1 -17 9 -20 12 -5 19
11 15 37 0 4 6 7 16 7 13 0 12 4 -6 19 -12 11 -22 22 -21 25 4 17 -8 27 -35
32 -17 3 -34 10 -40 16 -7 8 -6 8 5 3 13 -8 13 -7 1 8 -7 9 -14 17 -15 17 0 0
-8 -5 -16 -10z"/>
<path d="M2360 10081 c0 -7 -4 -9 -10 -6 -6 4 -7 -1 -3 -11 6 -15 7 -15 15 1
6 9 7 19 4 22 -3 4 -6 1 -6 -6z"/>
<path d="M2375 10071 c-10 -10 -4 -19 18 -26 46 -15 57 -15 57 0 0 8 -3 14 -7
14 -19 -3 -34 2 -29 9 5 8 -32 11 -39 3z"/>
<path d="M2506 10047 c3 -9 14 -15 25 -14 21 1 25 12 9 22 -5 3 -10 1 -10 -6
0 -8 -4 -8 -15 1 -13 11 -14 10 -9 -3z"/>
<path d="M2490 9975 c0 -8 -7 -18 -15 -21 -8 -4 -13 -10 -10 -14 5 -8 -33 -26
-47 -22 -5 1 -8 -3 -8 -8 0 -6 -11 -8 -25 -4 -19 5 -25 2 -25 -11 0 -9 -4 -13
-10 -10 -6 4 -10 -7 -10 -25 0 -18 -11 -45 -25 -64 -25 -33 -24 -56 2 -34 11
9 17 9 24 -3 6 -10 9 -11 9 -1 0 7 4 11 9 7 5 -3 13 -1 16 5 5 8 11 7 21 -1 7
-6 11 -16 7 -23 -4 -6 -8 -15 -8 -21 -1 -5 -5 -9 -10 -8 -6 0 -16 -5 -23 -13
-10 -11 -10 -14 0 -15 29 -3 63 4 69 13 3 5 10 8 15 7 5 -1 33 9 63 24 30 14
59 23 64 20 6 -3 7 -1 3 5 -4 6 5 19 19 28 14 9 24 23 21 30 -3 7 -1 16 5 19
5 4 7 11 4 16 -4 5 -1 9 6 9 7 0 10 3 6 6 -3 3 5 18 18 32 13 15 24 31 24 36
-1 5 5 12 11 16 15 9 4 30 -15 30 -9 0 -12 -6 -9 -15 4 -10 0 -15 -11 -15 -9
0 -14 -4 -11 -9 7 -11 -14 -20 -31 -14 -8 3 -9 12 -2 30 13 34 13 34 -21 31
-21 -2 -29 -6 -25 -16 4 -10 0 -12 -12 -7 -10 4 -22 8 -28 9 -5 1 -16 5 -22 9
-9 5 -13 2 -13 -8z"/>
<path d="M8517 11763 c-4 -7 -15 -11 -25 -11 -9 1 -35 -3 -57 -7 -22 -4 -48
-8 -57 -8 -10 -1 -18 -4 -18 -7 0 -3 -10 -7 -22 -7 -13 -1 -24 -7 -26 -13 -2
-5 -8 -7 -13 -4 -6 3 -16 0 -24 -6 -8 -6 -19 -9 -25 -5 -5 3 -10 1 -10 -4 0
-6 -3 -11 -7 -10 -16 2 -53 -14 -53 -22 0 -5 -7 -9 -16 -9 -8 0 -22 -7 -31
-15 -8 -8 -19 -13 -24 -9 -5 3 -8 2 -7 -3 2 -4 -7 -18 -19 -30 -13 -13 -23
-20 -23 -16 0 3 -9 -5 -21 -18 -12 -13 -26 -23 -31 -21 -5 1 -7 -2 -4 -7 4 -5
-8 -23 -24 -40 -17 -17 -31 -34 -32 -38 0 -4 -10 -22 -22 -39 -17 -25 -25 -29
-46 -23 -14 4 -20 8 -15 8 6 1 4 5 -4 10 -7 5 -14 24 -15 42 -1 19 -4 39 -7
44 -3 6 -5 25 -5 43 1 17 -3 32 -9 32 -5 0 -3 5 5 10 9 6 10 10 3 10 -6 0 -10
9 -8 20 2 11 0 20 -4 20 -5 0 -7 11 -6 25 4 33 -5 66 -16 59 -5 -3 -9 0 -9 6
0 6 -5 8 -12 3 -19 -11 -37 -12 -44 -2 -3 6 -11 5 -20 -2 -8 -6 -14 -7 -14 -2
0 5 -9 9 -20 9 -11 0 -20 -3 -20 -6 0 -3 -11 -5 -25 -5 -14 0 -25 5 -25 10 0
6 -5 3 -10 -5 -5 -8 -10 -10 -10 -5 0 6 -11 10 -25 10 -14 0 -25 -2 -25 -5 0
-8 -48 -5 -57 3 -3 4 -12 2 -20 -4 -10 -9 -13 -8 -13 1 0 10 -3 10 -14 1 -11
-9 -16 -9 -21 0 -6 8 -10 7 -16 -2 -7 -12 -9 -12 -9 0 0 11 -3 11 -16 0 -9 -7
-18 -9 -22 -3 -8 11 -52 14 -52 3 0 -4 -9 -5 -21 -2 -12 3 -24 1 -28 -5 -4 -6
-6 -63 -6 -126 1 -71 -3 -112 -9 -109 -5 4 -6 1 0 -8 12 -19 12 -959 0 -952
-5 4 -5 0 0 -8 12 -19 12 -959 0 -952 -5 4 -5 0 0 -8 5 -8 9 -127 9 -266 0
-138 4 -255 9 -260 5 -5 6 0 2 11 -5 14 -3 16 6 9 8 -7 116 -10 302 -9 237 1
290 4 294 15 3 9 0 11 -8 6 -9 -5 -10 -3 -3 11 5 11 8 67 7 127 -2 79 1 105 9
100 7 -4 6 1 -2 10 -7 9 -11 23 -8 31 3 7 0 19 -6 26 -9 10 -9 11 1 6 7 -5 12
-1 12 9 0 10 -5 13 -12 9 -7 -5 -8 -3 -2 7 12 19 12 30 1 53 -6 12 -6 16 1 12
7 -4 9 11 6 44 -2 31 0 50 7 50 5 0 7 5 4 10 -4 6 -12 7 -18 3 -9 -5 -9 -3 -2
8 12 16 12 170 0 189 -5 9 -4 11 3 6 7 -4 12 -1 12 9 0 10 -5 13 -12 9 -7 -5
-8 -3 -2 7 12 19 12 30 1 53 -5 10 -5 16 0 13 4 -3 9 17 10 44 1 35 -2 47 -10
42 -9 -5 -9 -3 -1 8 6 8 10 30 8 49 -1 19 3 41 10 49 8 11 8 13 0 8 -8 -5 -11
24 -11 98 0 74 3 103 11 98 6 -4 5 1 -3 10 -7 9 -11 23 -8 31 3 7 0 19 -6 26
-9 10 -9 11 1 6 7 -5 12 -1 12 9 0 10 -5 13 -12 9 -7 -5 -8 -3 -2 7 12 19 11
79 -1 79 -5 0 -4 4 4 9 7 5 10 14 6 20 -4 7 -2 18 5 26 7 8 7 15 1 19 -9 6 -1
131 9 131 2 0 11 54 12 73 1 6 5 12 9 12 4 0 6 9 4 20 -2 11 1 20 7 20 5 0 8
7 4 15 -3 8 -1 15 4 15 6 0 10 5 10 11 0 13 41 101 51 109 3 3 14 19 24 37 10
18 23 29 28 26 6 -3 7 -1 4 4 -8 13 88 108 125 124 15 6 28 15 28 19 0 5 16
14 35 20 19 6 35 15 35 19 0 4 10 7 22 8 11 1 25 8 29 15 7 10 9 11 9 0 0 -10
5 -10 22 -1 12 6 61 13 108 14 48 1 93 6 100 10 8 5 11 4 6 -3 -4 -6 1 -11 11
-11 35 0 75 -9 128 -31 43 -18 60 -23 68 -21 4 0 10 -6 13 -14 4 -8 12 -15 20
-15 8 0 14 -4 14 -10 0 -5 7 -10 16 -10 8 0 12 -4 9 -10 -3 -5 0 -10 8 -10 8
0 25 -13 38 -29 13 -16 27 -27 31 -25 5 3 7 1 6 -4 -3 -11 13 -38 48 -81 12
-14 23 -30 24 -36 10 -37 23 -65 32 -65 5 0 6 -10 3 -21 -5 -15 -4 -19 4 -15
7 5 11 -2 11 -17 0 -13 3 -27 7 -31 4 -3 8 -12 9 -19 1 -7 5 -25 9 -42 3 -16
8 -50 10 -75 2 -25 5 -45 6 -45 1 0 2 -48 3 -107 1 -59 5 -110 8 -114 4 -4 4
-14 0 -23 -10 -20 -9 -447 0 -457 4 -4 4 -14 0 -23 -7 -14 -8 -447 -2 -461 1
-3 1 -9 0 -15 -7 -23 -4 -305 2 -305 4 0 5 -6 2 -14 -5 -12 13 -15 105 -14 74
1 111 4 111 12 0 7 4 6 9 -2 6 -10 30 -12 89 -10 50 2 83 0 86 -7 3 -6 5 -6 5
0 1 6 38 9 96 8 61 -2 97 2 101 9 5 7 3 8 -6 3 -10 -6 -11 -4 -4 6 13 20 13
112 0 128 -8 11 -8 13 1 8 15 -10 15 52 -1 72 -8 11 -8 13 2 7 7 -4 12 -1 12
8 0 9 -6 16 -12 16 -10 0 -10 2 0 8 7 5 10 22 8 40 -2 19 1 32 8 32 7 0 7 3 1
8 -5 4 -10 30 -10 57 0 28 5 53 10 57 6 4 1 8 -10 8 -17 0 -17 2 -5 10 13 9
13 11 0 20 -8 5 -10 10 -4 10 15 0 15 100 0 119 -8 11 -8 13 1 8 15 -10 15 52
-1 72 -8 11 -8 13 0 8 16 -9 15 133 0 152 -8 11 -8 13 2 7 7 -4 12 -1 12 8 0
9 -6 16 -12 16 -10 0 -10 2 0 8 7 5 10 22 8 40 -2 19 1 32 8 32 7 0 7 3 1 8
-5 4 -10 30 -10 57 0 28 5 53 10 57 6 4 1 8 -10 8 -17 0 -17 2 -5 10 13 9 13
11 0 20 -8 5 -10 10 -4 10 15 0 15 100 0 119 -8 11 -8 13 1 8 15 -10 15 52 -1
72 -8 11 -8 13 1 8 15 -10 15 52 -1 72 -9 12 -8 13 3 6 11 -6 13 -2 9 18 -3
15 0 28 6 31 7 3 6 5 -2 5 -7 1 -11 5 -8 10 5 7 14 73 19 134 1 9 5 17 9 17 4
0 7 3 7 8 -1 4 -1 9 1 12 1 3 3 16 6 29 2 14 9 30 15 37 5 6 9 16 8 20 -3 11
23 67 35 75 5 4 5 12 1 19 -5 7 -4 11 1 8 10 -7 27 11 32 32 2 8 8 17 13 18 5
2 9 7 9 12 0 9 97 110 106 110 4 0 15 10 25 22 11 11 19 17 19 13 0 -4 9 0 21
11 12 10 23 17 25 14 2 -3 12 3 24 12 11 10 20 16 20 13 0 -3 15 1 34 9 19 8
37 12 40 8 3 -3 6 0 6 6 0 7 5 12 11 12 5 0 7 -5 3 -12 -5 -7 -3 -8 7 -2 18
11 38 16 67 15 15 -1 21 3 16 11 -4 7 -3 8 4 4 7 -4 42 -9 79 -11 38 -2 82 -7
98 -11 17 -3 38 -6 48 -6 9 0 17 -3 17 -9 0 -5 9 -9 20 -9 11 0 20 -5 20 -11
0 -5 5 -7 10 -4 6 3 10 1 10 -5 0 -6 4 -9 8 -6 5 3 19 -4 30 -15 12 -11 22
-17 22 -13 0 4 9 -2 20 -14 12 -12 25 -22 31 -22 6 0 7 -5 4 -11 -4 -6 2 -13
14 -16 11 -3 18 -9 15 -14 -3 -5 0 -9 6 -9 6 0 8 -4 5 -10 -3 -5 1 -10 9 -10
9 0 16 -8 16 -19 0 -10 7 -22 16 -25 8 -3 12 -10 9 -16 -3 -5 -1 -10 4 -10 6
0 10 -3 9 -7 -1 -5 3 -18 10 -29 6 -12 8 -24 5 -28 -3 -3 -1 -6 6 -6 8 0 11
-7 7 -15 -3 -8 -1 -15 4 -15 6 0 10 -9 10 -20 0 -11 5 -20 11 -20 8 0 7 -6 -2
-17 -12 -14 -12 -16 0 -8 11 6 13 4 8 -8 -3 -9 -2 -19 3 -22 5 -3 9 -13 8 -23
0 -9 3 -39 7 -67 4 -27 8 -1169 9 -2537 0 -1367 5 -2490 9 -2494 10 -10 137
-11 130 -2 -2 5 7 4 21 -2 18 -7 26 -6 26 1 0 8 5 7 15 -1 12 -10 15 -10 15 1
0 10 3 10 12 1 7 -7 17 -8 28 -2 9 5 22 5 29 0 8 -4 27 -4 42 0 19 6 29 5 29
-2 0 -7 4 -7 13 1 10 8 17 7 25 -1 9 -9 12 -9 12 1 0 11 3 11 15 1 12 -10 15
-10 15 0 0 10 3 10 15 0 12 -10 15 -10 15 0 0 10 3 10 15 0 12 -10 15 -10 15
0 0 9 4 9 13 2 8 -7 18 -7 27 -2 8 5 21 5 31 -1 12 -6 20 -5 24 1 4 6 10 8 15
5 5 -3 12 0 16 6 4 8 3 9 -5 5 -8 -5 -10 1 -6 24 4 22 2 29 -6 25 -8 -6 -8 -2
-1 12 6 10 9 32 7 49 -1 16 2 35 9 43 8 11 8 13 0 8 -7 -4 -14 0 -18 8 -3 8
-1 17 4 20 6 4 10 11 10 16 0 6 -5 7 -11 3 -8 -4 -8 -1 -1 13 6 10 9 32 7 49
-1 16 2 35 9 43 8 11 8 13 0 8 -7 -4 -14 0 -18 8 -3 8 -1 17 4 20 6 4 10 11
10 16 0 6 -5 7 -11 3 -7 -4 -7 1 1 16 6 12 9 24 6 27 -3 4 0 13 7 21 9 13 9
14 0 8 -8 -4 -13 -2 -13 6 0 8 6 20 13 27 7 9 7 11 1 8 -14 -8 -27 20 -14 28
6 4 10 11 10 16 0 6 -5 7 -11 3 -7 -4 -7 1 1 16 6 12 9 24 6 27 -3 4 0 13 7
21 9 13 9 14 0 8 -8 -4 -13 -2 -13 6 0 8 6 20 13 27 7 9 7 11 1 8 -14 -8 -27
20 -14 28 6 4 10 11 10 16 0 6 -5 7 -11 3 -7 -4 -7 1 1 16 6 12 9 24 6 27 -3
4 0 13 7 21 9 13 9 14 0 8 -8 -4 -13 -2 -13 6 0 8 6 20 13 27 7 9 7 11 1 8
-14 -8 -27 20 -14 28 6 4 10 11 10 16 0 6 -5 7 -11 3 -7 -4 -7 1 1 16 6 12 9
24 6 27 -3 4 0 13 7 21 10 13 9 14 -2 7 -11 -6 -13 -2 -7 19 5 20 4 26 -5 20
-8 -5 -9 -3 -3 7 14 24 16 51 2 43 -10 -6 -10 -4 -2 7 15 20 16 69 1 69 -8 0
-7 4 3 10 13 9 13 11 0 20 -8 5 -10 10 -5 10 6 0 11 18 12 40 2 29 -1 39 -9
34 -7 -5 -8 -3 -2 7 14 24 16 51 2 43 -10 -6 -10 -4 -2 7 15 20 16 69 1 69 -8
0 -7 4 3 10 13 9 13 11 0 20 -8 5 -10 10 -5 10 6 0 11 18 12 40 2 29 -1 39 -9
34 -7 -5 -8 -3 -2 7 14 24 16 51 2 43 -10 -6 -10 -4 -2 7 15 20 16 69 1 69 -8
0 -7 4 3 10 13 9 13 11 0 20 -8 5 -10 10 -5 10 6 0 11 18 12 40 2 29 -1 39 -9
34 -7 -5 -8 -3 -2 7 14 24 16 51 2 43 -10 -6 -10 -4 -2 7 15 20 16 69 1 69 -8
0 -7 4 3 10 13 9 13 11 0 20 -8 5 -10 10 -5 10 6 0 11 18 12 40 2 29 -1 39 -9
34 -7 -5 -8 -3 -2 7 14 24 16 51 2 43 -10 -6 -10 -4 -2 7 15 20 16 69 1 69 -8
0 -7 4 3 10 13 9 13 11 0 20 -8 5 -10 10 -5 10 6 0 11 18 12 40 2 29 -1 39 -9
34 -7 -5 -8 -3 -2 7 14 23 16 51 2 43 -7 -5 -8 -3 -2 7 14 23 15 52 2 61 -10
6 -10 8 1 8 10 0 11 3 2 14 -8 10 -9 16 -1 21 5 3 10 15 10 26 0 14 -4 18 -12
13 -8 -5 -8 -1 1 10 13 15 13 19 0 27 -8 5 -9 9 -4 9 6 0 11 18 12 40 2 29 -1
39 -9 34 -7 -5 -8 -3 -2 7 14 24 16 51 2 43 -10 -6 -10 -4 -2 7 15 20 16 69 1
69 -8 0 -7 4 3 10 13 9 13 11 0 20 -8 5 -10 10 -5 10 6 0 11 18 12 40 2 29 -1
39 -9 34 -7 -5 -8 -3 -2 7 14 24 16 51 2 43 -10 -6 -10 -4 -2 7 15 20 16 69 1
69 -8 0 -7 4 3 10 13 9 13 11 0 20 -8 5 -10 10 -5 10 6 0 11 18 12 40 2 29 -1
39 -9 34 -7 -5 -8 -3 -2 7 14 24 16 51 2 43 -10 -6 -10 -4 -2 7 15 20 16 69 1
69 -8 0 -7 4 3 10 13 9 13 11 0 20 -8 5 -10 10 -5 10 6 0 11 18 12 40 2 29 -1
39 -9 34 -7 -5 -8 -3 -2 7 14 24 16 51 2 43 -10 -6 -10 -4 -2 7 15 20 16 69 1
69 -8 0 -7 4 3 10 13 9 13 11 0 20 -8 5 -10 10 -5 10 6 0 11 28 11 64 0 40 -4
63 -9 59 -6 -4 -7 -1 -2 6 13 23 15 82 2 74 -9 -5 -9 -3 -1 8 15 20 16 69 1
69 -8 0 -7 4 3 10 13 9 13 11 0 20 -8 5 -10 10 -5 10 6 0 11 18 12 40 2 29 -1
39 -9 34 -7 -5 -8 -3 -2 7 14 24 16 51 2 43 -10 -6 -10 -4 -2 7 15 20 16 69 1
69 -8 0 -7 4 3 10 13 9 13 11 0 20 -8 5 -10 10 -5 10 6 0 11 18 12 40 2 29 -1
39 -9 34 -7 -5 -8 -3 -2 7 14 24 16 51 2 43 -10 -6 -10 -4 -2 7 15 20 16 69 1
69 -8 0 -7 4 3 10 13 9 13 11 0 20 -8 5 -10 10 -5 10 6 0 11 18 12 40 2 29 -1
39 -9 34 -7 -5 -8 -3 -2 7 14 24 16 51 2 43 -10 -6 -10 -4 -2 7 15 20 16 69 1
69 -8 0 -7 4 3 10 13 9 13 11 0 20 -8 5 -10 10 -5 10 6 0 11 18 12 40 2 29 -1
39 -9 34 -7 -5 -8 -3 -2 7 14 24 16 51 2 43 -10 -6 -10 -4 -2 7 15 20 16 69 1
69 -8 0 -7 4 3 10 13 9 13 11 0 20 -8 5 -10 10 -5 10 6 0 11 28 11 64 0 43 -3
63 -10 59 -6 -4 -5 1 3 10 7 9 10 17 6 17 -4 0 -2 6 4 14 10 11 8 17 -6 25
-10 6 -13 11 -6 11 9 0 11 19 3 40 -1 3 -1 10 0 15 7 32 6 65 -2 65 -6 0 -5 7
2 15 8 10 9 15 1 15 -7 0 -8 8 -1 25 6 15 6 25 0 25 -5 0 -7 12 -4 26 3 19 1
24 -8 18 -10 -6 -11 -5 -1 8 7 8 10 17 7 21 -3 3 -7 18 -9 34 -6 62 -21 155
-25 161 -2 1 -3 11 -4 22 0 12 -7 24 -14 29 -8 5 -14 12 -14 16 0 4 6 12 14
16 10 6 8 9 -7 9 -17 0 -17 2 -5 10 11 7 11 10 2 10 -7 0 -11 4 -7 9 3 5 1 12
-4 15 -8 5 -25 63 -22 79 0 4 -4 7 -10 7 -5 0 -8 4 -5 9 4 5 2 11 -3 13 -5 1
-11 12 -13 23 -1 11 -12 28 -22 38 -14 12 -15 17 -5 17 10 1 9 4 -4 11 -9 6
-15 14 -12 20 4 5 1 9 -4 9 -6 0 -11 5 -11 10 0 6 -9 20 -20 32 -10 12 -17 25
-14 30 3 4 -2 8 -10 8 -14 0 -20 12 -17 33 0 4 -6 7 -14 7 -8 0 -15 4 -15 8 0
5 -9 19 -20 32 -11 13 -20 20 -20 17 0 -3 -15 10 -34 28 -18 19 -38 35 -45 35
-7 0 -9 5 -6 10 3 6 -1 10 -9 10 -9 0 -16 4 -16 9 0 5 -13 14 -30 21 -16 7
-30 16 -30 21 0 5 -7 9 -15 9 -8 0 -15 5 -15 10 0 6 -3 9 -7 8 -15 -3 -73 28
-66 36 4 4 0 4 -10 0 -9 -3 -24 -1 -32 6 -8 7 -15 9 -15 5 0 -4 -6 -3 -12 2
-11 9 -73 28 -73 23 0 -1 -13 4 -30 10 -29 11 -75 20 -122 23 -13 0 -23 3 -23
7 0 7 -66 10 -215 10 -126 1 -142 -1 -162 -13 -6 -4 -14 -4 -17 1 -3 5 -19 7
-35 4 -17 -2 -29 -8 -26 -12 3 -5 -4 -6 -15 -3 -11 3 -28 -1 -37 -8 -14 -12
-15 -12 -9 0 6 9 1 8 -16 -3 -14 -9 -28 -13 -31 -10 -4 4 -13 2 -20 -4 -7 -7
-22 -13 -33 -15 -10 -2 -33 -11 -50 -20 -17 -9 -34 -13 -38 -10 -3 4 -6 1 -6
-5 0 -7 -6 -12 -13 -12 -7 0 -23 -9 -35 -20 -12 -12 -22 -18 -22 -15 0 3 -11
-2 -25 -11 -14 -9 -22 -21 -18 -28 3 -6 3 -8 -2 -4 -14 13 -155 -107 -155
-131 0 -7 -4 -9 -10 -6 -5 3 -10 2 -10 -4 0 -6 -10 -19 -22 -31 -12 -11 -18
-20 -13 -20 5 0 -1 -7 -13 -16 -12 -8 -22 -22 -22 -30 0 -8 -4 -14 -10 -14 -5
0 -9 -6 -7 -12 1 -7 -4 -12 -11 -10 -8 1 -11 -2 -8 -7 7 -10 -10 -24 -33 -28
-16 -2 -43 22 -34 31 4 3 1 6 -6 6 -8 0 -11 7 -7 15 3 8 1 15 -4 15 -6 0 -10
7 -10 15 0 8 -4 15 -8 15 -8 0 -36 60 -33 73 0 4 -5 6 -11 5 -7 -2 -12 3 -10
10 1 6 -2 12 -7 12 -5 0 -13 9 -16 20 -3 11 -12 20 -20 20 -8 0 -17 9 -20 20
-3 11 -11 20 -16 20 -6 0 -7 5 -4 10 3 6 -1 10 -10 10 -9 0 -13 5 -10 10 3 6
-1 10 -9 10 -9 0 -16 4 -16 8 0 5 -11 15 -25 22 -13 7 -21 18 -18 24 3 6 3 8
-2 4 -9 -8 -65 22 -65 35 0 4 -4 6 -9 3 -4 -3 -17 1 -27 9 -10 8 -27 15 -36
15 -10 0 -18 4 -18 8 0 4 -12 9 -26 10 -15 1 -32 7 -39 12 -7 6 -20 8 -29 4
-9 -3 -16 -1 -16 6 0 6 -4 8 -10 5 -5 -3 -10 -2 -10 2 0 5 -9 9 -20 10 -13 1
-18 -2 -13 -10 4 -8 1 -7 -9 1 -9 7 -30 14 -47 14 -17 1 -28 5 -24 11 3 5 -4
4 -14 -2 -11 -6 -23 -7 -27 -4 -12 12 -36 12 -36 0 0 -8 -3 -8 -8 -2 -8 13
-22 13 -41 1 -9 -6 -12 -5 -7 2 7 12 -41 11 -61 -1 -6 -4 -13 -2 -15 5 -3 9
-6 9 -11 1z"/>
<path d="M3931 11716 c-7 -8 -19 -12 -27 -9 -16 6 -19 -12 -4 -22 6 -3 10 -13
10 -22 0 -9 8 -25 18 -36 12 -15 13 -18 2 -12 -12 7 -13 6 -3 -7 7 -8 10 -18
6 -21 -3 -4 -1 -7 5 -7 7 0 12 -9 12 -19 0 -11 5 -23 10 -26 6 -4 8 -10 5 -15
-3 -5 0 -12 7 -17 7 -4 14 -15 14 -23 3 -26 9 -45 17 -51 4 -3 9 -16 10 -27 1
-12 4 -22 8 -22 7 0 23 -50 21 -62 -1 -5 3 -8 9 -8 6 0 9 -7 5 -15 -3 -8 0
-15 6 -15 6 0 8 -3 5 -7 -4 -3 -2 -12 4 -20 6 -7 8 -13 5 -13 -4 0 0 -7 9 -16
9 -10 14 -25 12 -36 -3 -10 -1 -16 4 -12 5 3 9 -2 9 -10 0 -9 5 -16 11 -16 6
0 9 -6 6 -14 -3 -7 1 -23 9 -35 8 -11 12 -21 8 -21 -3 0 -1 -7 6 -15 7 -8 9
-15 4 -15 -4 0 -3 -5 4 -12 7 -7 12 -20 12 -30 0 -10 5 -18 10 -18 6 0 10 -9
10 -21 0 -11 4 -18 9 -15 4 3 7 -6 5 -19 -1 -14 3 -25 9 -25 5 0 8 -3 4 -6 -3
-4 0 -13 8 -20 8 -8 12 -21 9 -29 -4 -8 -2 -15 4 -15 5 0 13 -12 17 -27 3 -16
13 -41 20 -58 8 -16 15 -37 17 -45 2 -8 10 -21 18 -28 8 -8 9 -11 3 -7 -9 4
-11 1 -7 -9 3 -9 10 -16 14 -16 7 0 24 -57 21 -72 0 -5 4 -8 10 -8 5 0 7 -4 4
-10 -3 -5 -1 -10 5 -10 6 0 8 -4 5 -10 -3 -5 -2 -10 4 -10 5 0 8 -8 7 -17 -2
-10 3 -24 11 -31 7 -8 11 -18 8 -23 -4 -5 -1 -9 5 -9 6 0 8 -4 5 -10 -3 -5 -1
-10 4 -10 6 0 10 -3 9 -7 -2 -13 15 -68 23 -73 5 -3 10 -17 11 -30 2 -14 10
-31 18 -38 13 -12 13 -12 0 -6 -9 5 -6 -3 7 -19 12 -16 20 -37 18 -47 -3 -14
2 -20 13 -20 15 0 15 -2 2 -10 -11 -7 -11 -10 -2 -10 7 0 10 -4 7 -10 -3 -5
-1 -10 4 -10 6 0 11 -9 11 -19 0 -11 5 -23 11 -26 5 -4 8 -12 6 -18 -2 -7 2
-19 10 -28 7 -9 15 -25 17 -35 9 -43 12 -49 26 -62 13 -12 13 -13 0 -6 -10 5
-9 0 4 -14 11 -12 21 -34 22 -49 2 -14 8 -31 13 -36 6 -6 11 -19 11 -29 0 -10
5 -18 10 -18 6 0 10 -11 10 -25 0 -14 5 -25 11 -25 6 0 9 -7 5 -15 -3 -8 -1
-15 4 -15 6 0 9 -3 8 -7 -1 -9 7 -33 30 -83 9 -19 15 -38 14 -42 -1 -5 2 -8 8
-8 6 0 9 -3 9 -7 -3 -17 14 -73 22 -73 5 0 9 -11 9 -24 0 -13 5 -26 10 -28 6
-2 12 -13 13 -26 0 -12 5 -22 9 -22 4 0 8 -9 8 -20 0 -11 5 -20 11 -20 5 0 8
-4 5 -8 -3 -5 2 -21 10 -36 7 -16 14 -37 14 -48 0 -12 4 -17 12 -12 8 5 9 0 6
-14 -4 -12 -3 -22 1 -22 4 0 13 -17 21 -37 7 -21 20 -54 28 -73 9 -19 16 -38
16 -42 1 -3 4 -10 9 -14 11 -11 9 -54 -3 -54 -5 0 -10 -7 -10 -15 0 -15 -4
-26 -29 -73 -6 -13 -9 -27 -6 -31 3 -5 -2 -12 -11 -15 -9 -3 -14 -12 -11 -19
3 -7 -1 -21 -9 -32 -8 -10 -14 -27 -14 -37 0 -10 -6 -21 -14 -24 -9 -3 -12
-12 -9 -21 4 -11 2 -14 -5 -9 -8 4 -10 2 -6 -7 3 -8 -2 -22 -12 -31 -9 -9 -14
-20 -10 -23 3 -4 -1 -15 -11 -25 -9 -10 -13 -18 -9 -18 4 0 -3 -20 -17 -44
-24 -44 -25 -45 -6 -62 10 -9 19 -12 19 -6 0 6 18 17 40 23 22 7 40 15 40 19
0 4 7 7 15 8 8 1 22 3 30 4 8 1 15 5 15 10 0 4 9 8 20 8 11 0 20 4 20 8 0 7 8
9 64 14 14 1 22 6 20 10 -5 7 34 13 64 9 6 -1 12 3 12 8 0 5 8 10 18 10 32 -1
87 13 101 24 12 9 13 9 7 0 -4 -7 -2 -13 3 -13 6 0 11 5 11 11 0 6 9 8 21 4
16 -5 19 -4 14 5 -5 8 -4 11 2 7 16 -10 63 -16 63 -8 0 4 23 9 52 10 28 1 57
6 63 11 7 5 15 7 18 4 4 -4 5 3 2 15 -2 11 1 21 6 21 6 0 8 4 4 9 -3 5 -1 12
5 16 6 4 8 10 5 15 -3 4 2 10 10 14 8 3 12 12 9 21 -3 8 -1 15 5 15 6 0 10 3
10 8 -4 22 2 42 11 37 6 -3 10 3 10 15 0 12 11 41 25 66 14 25 20 42 13 38 -7
-4 -6 1 3 12 9 10 14 25 12 32 -3 6 0 12 5 12 5 0 20 26 33 58 12 31 28 60 33
64 7 5 5 8 -4 8 -12 1 -11 3 3 11 9 6 15 14 12 19 -3 5 -1 11 5 15 6 4 8 11 5
16 -4 5 -1 9 5 9 6 0 8 5 5 10 -3 6 -1 10 4 10 6 0 11 8 11 18 0 10 7 28 16
40 8 12 12 22 9 22 -3 0 0 10 7 23 7 12 13 24 13 27 0 3 6 15 14 28 7 13 14
32 16 44 2 11 10 27 17 35 7 9 13 21 13 27 0 6 8 26 18 43 9 18 17 34 17 35
-1 11 26 68 32 68 4 0 5 9 3 19 -2 11 3 22 11 25 9 3 13 10 9 15 -3 5 0 13 6
16 5 4 8 13 5 20 -2 7 2 16 11 19 9 4 13 9 10 13 -4 3 -1 15 5 27 7 11 13 24
14 29 1 4 3 10 4 15 1 4 2 10 1 15 0 4 3 7 9 7 5 0 10 9 10 20 0 11 5 20 10
20 6 0 9 3 8 8 -1 4 5 23 14 42 8 19 20 49 26 65 6 17 14 39 18 50 4 11 6 24
5 28 -1 5 3 6 9 2 9 -6 14 7 11 28 0 4 4 7 10 7 5 0 8 4 4 9 -3 5 -1 12 5 16
6 4 8 11 5 16 -4 5 -1 9 6 9 7 0 9 3 6 6 -3 4 -1 16 5 28 7 11 13 23 13 26 0
3 9 20 18 38 10 17 14 32 11 32 -4 0 0 8 9 18 10 10 14 22 10 25 -3 4 0 7 7 7
7 0 11 3 7 6 -3 4 2 23 13 44 11 21 16 40 13 44 -4 3 -1 6 6 6 7 0 9 5 6 10
-3 6 -1 10 5 10 6 0 8 5 5 10 -3 6 -1 10 5 10 6 0 9 4 5 9 -3 5 -1 12 5 16 6
4 8 11 5 16 -4 5 -1 9 5 9 6 0 9 4 5 9 -3 5 -1 12 5 16 6 4 8 11 5 16 -4 5 -1
9 5 9 6 0 9 4 5 9 -3 6 3 14 12 20 10 6 14 11 9 11 -5 0 -2 8 5 17 12 14 12
16 -1 9 -13 -6 -13 -6 0 6 9 7 15 20 15 28 -1 8 7 27 17 41 9 14 15 29 11 33
-3 3 -1 6 6 6 7 0 10 4 6 9 -3 5 -1 12 5 16 6 4 8 11 5 16 -4 5 -2 9 2 9 9 0
48 99 45 113 -1 4 3 7 9 7 5 0 7 5 4 10 -3 6 -2 10 4 10 5 0 12 14 16 30 4 17
11 30 16 30 5 0 8 3 7 8 -3 15 15 62 24 62 5 0 7 3 5 8 -3 4 3 25 14 46 10 22
19 46 19 53 0 7 5 13 10 13 6 0 9 3 8 8 -1 4 4 20 10 35 7 16 12 33 12 38 0 5
5 9 11 9 6 0 9 7 5 15 -3 8 -1 15 4 15 6 0 9 3 8 8 -1 8 9 39 23 65 5 9 13 25
18 35 10 18 19 44 18 52 0 3 6 16 13 30 8 14 13 28 12 33 -1 4 3 7 8 7 6 0 10
8 8 18 -2 9 2 16 8 15 6 -1 11 3 11 10 0 7 3 22 7 35 5 15 3 22 -6 23 -106 4
-148 3 -148 -4 0 -5 -5 -5 -12 -1 -18 11 -88 11 -88 -1 0 -7 -3 -7 -8 0 -8 12
-132 14 -132 2 0 -5 -6 -5 -12 -1 -18 12 -82 11 -90 -1 -5 -7 -8 -7 -8 0 0 6
-29 9 -70 8 -78 -1 -104 -8 -95 -23 3 -6 0 -13 -8 -16 -7 -2 -14 -11 -15 -19
-1 -8 -3 -22 -4 -30 -1 -8 -5 -15 -10 -15 -5 0 -6 -4 -3 -10 3 -5 1 -10 -5
-10 -7 0 -10 -7 -6 -15 3 -8 1 -15 -4 -15 -6 0 -10 -9 -10 -20 0 -11 -4 -20
-10 -20 -5 0 -10 -6 -10 -14 0 -7 -20 -58 -44 -114 -24 -55 -42 -103 -38 -106
3 -3 0 -6 -7 -6 -7 0 -9 -4 -6 -10 3 -5 1 -10 -5 -10 -6 0 -9 -4 -5 -9 3 -5 0
-13 -6 -16 -5 -4 -8 -13 -5 -21 3 -8 1 -14 -4 -14 -6 0 -10 -9 -10 -21 0 -11
-4 -18 -9 -15 -5 4 -8 -5 -7 -19 2 -13 0 -22 -4 -20 -4 3 -11 -5 -15 -18 -4
-12 -9 -24 -10 -27 -6 -11 -17 -50 -16 -55 1 -3 -5 -13 -14 -21 -8 -9 -15 -24
-15 -35 0 -10 -5 -19 -11 -19 -5 0 -8 -4 -4 -9 3 -5 1 -12 -5 -16 -6 -4 -8
-11 -5 -16 4 -5 1 -9 -4 -9 -6 0 -10 -3 -9 -7 4 -15 -26 -82 -34 -77 -4 3 -5
-1 -2 -9 3 -8 1 -18 -5 -21 -6 -4 -8 -13 -4 -21 3 -8 1 -15 -5 -15 -9 0 -23
-31 -26 -56 -1 -6 -7 -18 -15 -27 -7 -9 -9 -22 -5 -28 4 -8 3 -9 -4 -5 -8 5
-12 0 -12 -13 0 -12 -4 -21 -9 -21 -5 0 -9 -6 -8 -12 1 -32 -4 -49 -12 -43 -6
3 -10 -3 -10 -12 -1 -39 -5 -53 -13 -53 -5 0 -6 -4 -3 -10 3 -5 1 -10 -5 -10
-6 0 -8 -4 -5 -10 3 -5 1 -10 -5 -10 -6 0 -9 -4 -6 -9 7 -11 -4 -42 -13 -37
-3 2 -7 -6 -8 -17 -5 -44 -10 -61 -21 -65 -7 -2 -12 -8 -12 -13 0 -6 6 -7 13
-3 9 6 9 4 -1 -8 -7 -9 -15 -26 -17 -39 -3 -12 -10 -26 -17 -30 -11 -7 -16
-24 -20 -71 -1 -10 -6 -18 -10 -18 -4 0 -8 -9 -8 -20 0 -11 -5 -20 -11 -20 -6
0 -9 -7 -5 -15 3 -8 1 -15 -5 -15 -6 0 -7 -4 -4 -10 3 -5 2 -10 -4 -10 -6 0
-8 -7 -5 -15 4 -8 1 -15 -5 -15 -6 0 -8 -7 -5 -15 4 -8 1 -15 -6 -15 -7 0 -10
-7 -6 -15 3 -8 1 -15 -4 -15 -8 0 -26 -57 -22 -72 1 -5 -2 -8 -6 -8 -4 0 -14
-21 -22 -47 -12 -41 -40 -88 -40 -67 0 3 -7 1 -15 -6 -12 -10 -15 -10 -15 3 0
8 -4 17 -9 19 -5 2 -11 10 -13 18 -2 8 -7 18 -12 21 -5 4 -8 18 -8 33 0 14 -4
26 -8 26 -4 0 -11 15 -14 33 -3 17 -13 45 -21 60 -9 18 -10 25 -2 20 7 -4 4 5
-6 20 -10 15 -15 32 -12 37 3 6 1 10 -5 10 -7 0 -10 6 -7 13 2 6 -1 23 -9 37
-17 34 -26 60 -30 88 -1 13 -9 31 -16 39 -7 9 -13 21 -13 27 -2 28 -18 86 -24
86 -6 0 -10 17 -13 58 -1 6 -5 12 -10 12 -4 0 -8 11 -8 25 0 14 -5 25 -12 25
-6 0 -9 3 -5 6 3 3 -3 28 -13 55 -11 27 -16 49 -12 49 4 0 2 4 -5 8 -6 4 -13
16 -15 27 -1 11 -7 23 -13 27 -6 5 -4 8 4 8 11 0 9 4 -5 15 -10 8 -15 15 -10
15 5 0 2 8 -5 17 -12 14 -12 15 0 9 9 -6 8 -1 -3 17 -9 13 -18 33 -20 43 -3
11 -10 33 -17 49 -7 17 -11 34 -10 39 1 5 -3 12 -8 16 -6 3 -12 18 -13 33 -1
15 -6 27 -11 27 -5 0 -7 9 -4 20 3 11 1 18 -4 14 -8 -5 -13 12 -12 44 1 6 -4
12 -10 12 -6 0 -8 3 -4 6 3 4 0 19 -8 34 -8 15 -11 30 -8 34 4 3 1 6 -5 6 -7
0 -12 8 -12 19 0 10 -7 34 -15 54 -8 19 -11 37 -8 41 4 3 1 6 -6 6 -8 0 -11 8
-8 20 3 12 0 20 -7 20 -10 0 -15 19 -19 67 0 7 -4 10 -9 7 -4 -3 -8 4 -8 14 0
11 -7 33 -15 48 -8 16 -15 36 -15 44 0 9 -6 22 -12 29 -11 11 -10 12 2 6 12
-7 13 -6 3 7 -7 8 -9 19 -5 23 4 5 1 5 -5 1 -12 -6 -19 18 -14 47 0 4 -3 7 -9
7 -5 0 -10 10 -10 23 0 13 -4 27 -8 33 -15 18 -33 84 -26 95 4 8 3 9 -4 5 -6
-4 -21 -2 -32 4 -15 8 -20 8 -20 -2 -1 -8 -7 -5 -15 6 -9 12 -15 15 -15 7 0
-9 -9 -12 -25 -9 -14 3 -25 1 -25 -6 0 -6 -7 -2 -15 8 -9 12 -15 15 -15 7 0
-9 -9 -12 -25 -9 -14 3 -25 1 -25 -6 0 -6 -7 -2 -15 8 -9 12 -15 15 -15 7 0
-9 -9 -12 -25 -9 -14 3 -25 1 -25 -6 0 -6 -7 -2 -15 8 -9 12 -15 15 -15 7 0
-9 -9 -12 -25 -9 -14 3 -25 1 -25 -6 0 -6 -7 -2 -15 8 -9 12 -15 15 -15 7 0
-10 -9 -12 -30 -7 -20 4 -30 2 -30 -7 0 -7 -3 -8 -8 -2 -10 14 -65 14 -74 1
-5 -7 -8 -7 -8 -1 0 6 -20 9 -47 8 -25 -2 -52 2 -58 7 -9 7 -16 6 -24 -4z"/>
<path d="M6470 8537 c0 -9 -9 -21 -20 -27 -11 -6 -18 -15 -15 -19 3 -5 -2 -11
-10 -15 -8 -3 -20 -17 -27 -31 -6 -14 -18 -25 -25 -25 -8 0 -11 -4 -8 -10 3
-5 1 -10 -4 -10 -6 0 -10 -3 -9 -7 3 -8 -19 -37 -54 -75 -10 -10 -16 -18 -13
-18 3 0 -14 -20 -37 -45 -23 -25 -45 -45 -49 -45 -3 0 -23 11 -43 25 -21 14
-42 23 -47 20 -5 -4 -12 1 -15 9 -3 9 -10 13 -15 10 -5 -3 -9 0 -9 5 0 6 -7
11 -15 11 -8 0 -23 4 -33 9 -9 5 -37 15 -62 22 -25 7 -48 18 -52 24 -5 6 -8 5
-8 -3 0 -8 -5 -10 -12 -6 -7 4 -24 9 -38 11 -46 6 -59 9 -66 16 -4 3 -15 2
-25 -3 -11 -6 -20 -6 -23 -1 -4 5 -31 9 -62 7 -31 -1 -58 2 -60 6 -3 5 -9 6
-13 3 -5 -2 -42 -6 -82 -7 -41 -1 -77 -7 -81 -12 -5 -8 -8 -7 -8 0 0 12 -49
12 -68 0 -7 -4 -12 -5 -12 -1 0 3 -9 1 -20 -5 -15 -8 -20 -8 -20 2 0 9 -3 10
-8 2 -7 -11 -14 -13 -67 -17 -14 -1 -25 -6 -25 -10 0 -5 -4 -6 -9 -2 -5 3 -12
1 -15 -4 -3 -5 -19 -8 -35 -7 -17 1 -28 -2 -25 -6 3 -4 -2 -9 -10 -9 -36 -3
-41 -6 -38 -19 3 -11 0 -11 -12 -1 -10 9 -16 9 -21 1 -4 -6 -14 -9 -22 -6 -8
3 -11 1 -8 -4 3 -6 -3 -10 -14 -10 -12 0 -21 -4 -21 -10 0 -5 -7 -7 -15 -4 -8
4 -15 2 -15 -4 0 -9 -37 -25 -52 -23 -5 1 -8 -3 -8 -8 0 -10 -39 -27 -52 -23
-5 1 -8 -3 -8 -8 0 -6 -16 -18 -35 -27 -19 -9 -31 -21 -28 -26 3 -6 1 -7 -5
-3 -6 4 -19 -2 -29 -14 -10 -11 -22 -20 -27 -20 -10 0 -32 -19 -78 -67 -12
-13 -28 -23 -35 -23 -8 0 -12 -4 -9 -9 8 -12 -29 -43 -39 -34 -4 5 -5 3 -1 -4
4 -7 -2 -18 -14 -25 -11 -7 -20 -19 -20 -26 0 -7 -7 -15 -15 -18 -8 -4 -13
-10 -10 -15 3 -4 -4 -13 -15 -19 -11 -6 -18 -15 -15 -21 4 -5 1 -9 -5 -9 -6 0
-9 -3 -7 -7 7 -11 -19 -33 -29 -25 -4 4 -4 2 -1 -4 3 -6 -5 -27 -18 -46 -13
-20 -21 -38 -18 -42 4 -3 1 -6 -5 -6 -7 0 -12 -7 -12 -16 0 -9 -5 -12 -12 -8
-9 5 -9 2 1 -9 12 -15 11 -17 -4 -17 -10 0 -16 -3 -12 -6 7 -8 -13 -65 -22
-60 -4 3 -8 -7 -9 -20 -1 -14 -6 -33 -12 -43 -5 -10 -6 -21 -3 -25 3 -3 1 -6
-6 -6 -7 0 -9 -4 -6 -10 3 -5 3 -10 -2 -10 -4 0 -9 -14 -10 -32 -1 -17 -6 -34
-11 -37 -4 -3 -7 -16 -6 -28 1 -13 -3 -23 -9 -23 -5 0 -4 -6 2 -14 7 -8 8 -17
3 -20 -14 -8 -21 -55 -10 -62 5 -3 3 -13 -4 -21 -7 -9 -14 -41 -14 -72 -3 -90
-3 -93 -16 -85 -7 4 -4 -2 6 -14 11 -12 14 -22 9 -22 -10 0 -8 -53 2 -71 4 -5
0 -9 -7 -9 -10 0 -10 -2 1 -9 9 -6 10 -11 2 -15 -6 -4 -8 -14 -3 -24 4 -9 7
-34 7 -54 -1 -21 4 -38 10 -38 5 0 3 -5 -5 -10 -9 -6 -10 -10 -3 -10 8 0 11
-13 9 -35 -1 -19 2 -35 6 -35 5 0 6 -5 3 -10 -4 -6 -1 -18 7 -27 11 -14 11
-16 -1 -8 -10 6 -12 4 -6 -6 5 -7 10 -20 11 -29 1 -8 5 -25 8 -37 15 -58 18
-69 18 -80 1 -7 5 -13 10 -13 5 0 7 -4 4 -9 -3 -4 1 -16 8 -27 8 -10 12 -24 9
-30 -2 -7 1 -15 6 -19 6 -3 9 -11 6 -16 -4 -5 -1 -9 4 -9 6 0 11 -9 11 -19 0
-11 5 -23 10 -26 6 -4 8 -11 5 -16 -4 -5 -1 -9 6 -9 7 0 10 -3 6 -6 -3 -4 1
-13 9 -21 8 -8 12 -19 9 -24 -4 -5 1 -9 9 -9 8 0 13 -6 10 -13 -2 -7 5 -22 16
-34 11 -12 20 -26 20 -30 0 -5 9 -15 19 -23 11 -7 18 -18 15 -22 -3 -5 6 -18
20 -29 14 -11 26 -25 26 -30 0 -15 26 -39 34 -32 3 4 6 -1 6 -10 0 -10 7 -17
16 -17 8 0 12 -4 9 -10 -3 -5 -2 -10 2 -10 5 0 25 -16 46 -36 20 -20 37 -33
37 -30 0 3 14 -7 31 -24 18 -16 38 -30 45 -30 8 0 14 -4 14 -10 0 -5 7 -10 16
-10 9 0 12 -5 8 -12 -4 -7 -4 -10 1 -6 8 8 65 -21 65 -34 0 -4 7 -5 15 -2 8 4
15 1 15 -6 0 -6 6 -10 13 -7 6 2 18 -3 25 -12 11 -13 12 -13 7 -1 -6 13 -5 13
7 0 7 -8 22 -16 32 -18 11 -2 29 -9 40 -17 12 -7 29 -11 39 -10 9 2 17 -1 17
-6 0 -5 10 -9 23 -9 13 0 27 -4 33 -10 5 -5 26 -10 47 -12 20 -1 37 -5 37 -8
0 -3 15 -7 33 -8 33 -3 72 -9 72 -12 0 -4 82 -10 193 -15 62 -2 118 -7 123
-10 5 -4 9 -2 9 3 0 5 7 9 15 9 8 0 15 -4 15 -9 0 -5 12 -8 28 -7 15 2 32 1
37 -2 6 -3 22 -5 38 -4 15 0 27 -2 27 -6 0 -12 39 -17 44 -5 3 7 5 7 5 -2 1
-7 5 -11 10 -7 5 3 16 -2 24 -10 12 -11 17 -12 20 -2 4 9 6 9 6 -1 1 -7 6 -10
11 -7 6 3 10 1 10 -6 0 -7 3 -9 7 -6 3 4 17 0 30 -8 13 -9 28 -13 33 -10 6 3
10 -1 10 -10 0 -9 5 -13 10 -10 6 3 10 1 10 -4 0 -6 3 -10 8 -9 13 2 45 -15
74 -41 78 -69 98 -92 92 -103 -5 -7 -3 -8 5 -4 8 5 14 0 18 -13 3 -12 9 -21
14 -21 5 0 9 -6 9 -13 0 -7 6 -19 13 -25 6 -7 12 -16 13 -20 1 -11 14 -45 25
-64 5 -10 6 -24 3 -33 -3 -8 -2 -15 3 -15 5 0 8 -13 5 -29 -2 -16 1 -32 8 -36
8 -5 8 -10 -1 -21 -9 -11 -9 -14 0 -14 9 0 9 -5 1 -20 -8 -15 -8 -20 2 -20 9
0 9 -3 -2 -10 -12 -8 -12 -10 -1 -10 11 0 11 -3 0 -17 -12 -15 -12 -16 1 -8
13 8 13 7 1 -8 -8 -10 -11 -20 -8 -24 3 -3 0 -21 -8 -40 -8 -18 -10 -31 -6
-28 5 3 7 -4 4 -15 -3 -11 -9 -20 -14 -20 -5 0 -8 -3 -7 -7 3 -16 -15 -63 -28
-74 -8 -6 -14 -20 -14 -30 0 -10 -9 -24 -20 -32 -11 -8 -18 -16 -15 -19 3 -3
-14 -23 -39 -46 -24 -22 -41 -43 -38 -46 3 -3 -2 -6 -11 -6 -10 0 -17 -5 -17
-11 0 -5 -4 -8 -9 -5 -5 3 -12 -1 -15 -10 -3 -8 -10 -12 -16 -9 -5 3 -10 2
-10 -4 0 -10 -102 -64 -129 -68 -8 -1 -17 -5 -20 -10 -6 -8 -25 -12 -73 -16
-14 -1 -23 -6 -20 -11 3 -5 -1 -7 -10 -4 -8 4 -21 2 -29 -2 -8 -5 -19 -4 -26
2 -9 7 -14 6 -18 -4 -4 -9 -17 -13 -40 -10 -20 2 -41 -1 -49 -7 -7 -6 -16 -8
-20 -4 -11 12 -56 11 -56 -1 0 -6 -4 -5 -9 2 -4 7 -12 12 -17 11 -26 -4 -105
2 -100 9 2 4 -11 7 -30 6 -19 -1 -34 2 -34 8 0 5 -5 6 -10 3 -6 -4 -18 -1 -27
7 -14 11 -16 11 -8 -2 6 -12 5 -13 -6 -2 -7 6 -21 12 -31 12 -10 0 -18 5 -18
12 0 6 -3 9 -6 5 -4 -3 -19 0 -34 8 -15 8 -30 11 -34 8 -3 -4 -6 -1 -6 6 0 7
-4 9 -10 6 -5 -3 -10 -1 -10 4 0 6 -9 11 -20 11 -11 0 -20 7 -20 16 0 8 -4 13
-9 9 -5 -3 -22 7 -37 22 -16 16 -31 27 -34 27 -9 -2 -59 43 -54 49 3 3 -6 13
-20 22 -14 10 -23 21 -20 26 3 5 -3 9 -12 9 -10 0 -15 3 -11 6 3 4 -1 13 -9
21 -8 8 -12 19 -9 24 4 5 1 9 -4 9 -11 0 -38 55 -43 88 -2 9 -6 19 -10 22 -4
3 -9 16 -11 28 -2 12 -6 25 -10 28 -4 4 -2 13 4 21 9 10 8 13 0 13 -7 0 -11 6
-10 13 4 31 -2 36 -36 33 -21 -3 -35 1 -35 8 0 7 -3 7 -8 1 -10 -14 -65 -17
-56 -3 5 7 2 8 -7 3 -20 -13 -89 -13 -89 -1 0 7 -3 8 -8 1 -10 -14 -65 -17
-56 -3 5 7 2 8 -7 3 -20 -13 -89 -13 -89 -1 0 7 -3 6 -8 -1 -8 -13 -29 -12
-51 1 -9 6 -12 5 -8 -1 4 -7 -3 -10 -18 -9 -14 0 -25 6 -25 11 0 6 -3 6 -8 0
-4 -6 -16 -11 -27 -11 -11 0 -23 5 -27 11 -5 6 -8 5 -8 -4 0 -8 -7 -11 -19 -8
-18 4 -24 -14 -8 -29 4 -4 2 -13 -4 -21 -6 -7 -7 -13 -2 -13 5 0 9 -15 9 -32
1 -36 12 -104 21 -128 4 -8 6 -25 6 -37 0 -13 3 -23 8 -23 4 0 6 -9 4 -20 -2
-11 0 -20 6 -20 5 0 9 -13 9 -29 0 -16 7 -34 15 -41 8 -7 13 -15 10 -19 -2 -4
5 -22 16 -39 10 -18 19 -39 19 -47 0 -8 5 -15 10 -15 6 0 10 -7 10 -15 0 -8 5
-15 11 -15 5 0 7 -4 4 -10 -3 -5 -1 -10 5 -10 6 0 8 -4 5 -10 -3 -5 -1 -10 4
-10 6 0 11 -4 11 -10 0 -9 19 -35 47 -65 7 -8 13 -17 13 -21 0 -3 16 -22 36
-40 19 -19 33 -34 29 -34 -3 0 0 -6 7 -14 7 -8 15 -12 17 -10 6 5 31 -24 31
-37 0 -7 3 -9 7 -6 3 4 16 -5 29 -18 13 -14 27 -26 31 -28 5 -1 7 -6 5 -10 -1
-5 1 -6 6 -3 5 3 18 -3 29 -14 12 -10 24 -16 27 -13 3 4 6 1 6 -5 0 -7 7 -12
15 -12 8 0 15 -4 15 -10 0 -5 6 -10 14 -10 7 0 19 -7 26 -15 7 -9 15 -13 18
-11 2 3 11 -2 19 -10 8 -8 19 -12 24 -9 5 4 9 3 9 -2 0 -9 48 -33 67 -33 7 0
13 -4 13 -10 0 -5 10 -10 23 -10 12 0 33 -7 45 -16 12 -8 22 -12 22 -8 0 3 8
0 17 -7 13 -11 15 -11 9 -1 -7 11 -4 11 15 0 13 -7 27 -17 31 -23 5 -6 8 -5 8
4 0 11 3 11 15 1 8 -7 15 -9 15 -6 0 4 10 1 23 -6 12 -6 34 -12 50 -11 15 0
27 -5 27 -11 0 -6 5 -4 10 4 8 12 10 12 10 1 0 -8 3 -11 6 -8 4 3 16 2 27 -4
15 -9 18 -8 12 2 -6 8 -4 10 6 3 8 -4 39 -9 69 -11 30 -1 56 -7 58 -13 3 -7 9
-6 20 2 18 15 22 15 33 -4 6 -9 9 -9 9 -1 0 8 9 9 28 3 16 -4 36 -4 45 2 10 5
17 5 17 0 0 -5 7 -9 15 -9 8 0 15 5 15 10 0 5 6 4 14 -2 11 -9 16 -9 21 0 6 8
10 7 16 -2 5 -8 9 -9 9 -3 0 5 19 11 43 11 86 3 107 6 107 17 0 6 4 5 9 -3 5
-8 11 -9 15 -3 3 6 18 9 31 6 14 -2 25 0 25 4 0 5 12 8 28 7 15 -1 30 3 33 7
3 5 23 10 45 11 21 1 47 8 56 16 9 8 29 16 45 18 15 2 36 4 46 5 9 1 17 5 17
9 0 7 85 41 96 39 4 -1 10 2 13 7 5 9 29 22 98 57 13 6 23 14 23 19 0 4 7 7
15 7 8 0 15 5 15 11 0 5 5 7 10 4 6 -3 10 -2 10 3 0 6 20 23 44 38 25 16 44
31 42 34 -1 3 13 19 31 37 18 17 33 29 33 26 0 -3 14 12 31 33 17 22 36 38 43
36 6 -2 8 0 4 4 -5 4 3 22 17 40 14 18 25 37 25 43 0 6 5 11 11 11 5 0 15 14
20 30 6 17 15 30 21 30 5 0 6 5 3 10 -3 6 1 13 9 16 9 3 13 10 11 15 -3 5 1
19 10 32 8 13 12 27 9 30 -4 4 0 9 8 12 10 4 14 14 11 26 -3 10 0 19 6 19 6 0
11 10 11 23 0 13 3 27 7 31 4 3 8 16 10 28 2 12 8 27 14 35 8 8 8 13 1 13 -5
0 -8 9 -5 20 3 11 8 18 12 16 3 -2 6 16 6 41 -1 24 2 46 6 49 9 5 9 324 0 324
-4 0 -7 18 -6 40 1 22 -1 40 -5 40 -4 0 -6 10 -5 22 1 13 -5 29 -13 37 -10 10
-11 16 -4 19 8 2 6 12 -4 28 -9 13 -13 24 -9 24 5 0 1 8 -7 18 -13 14 -27 53
-29 79 0 5 -7 12 -15 16 -8 4 -14 15 -14 22 0 8 -5 15 -11 15 -5 0 -8 4 -4 9
3 5 -5 17 -17 25 -12 9 -19 16 -15 16 9 0 1 10 -70 87 -29 31 -53 52 -53 48 0
-5 -12 5 -26 23 -15 17 -30 29 -35 26 -5 -3 -9 1 -9 9 0 7 -16 19 -35 27 -19
7 -32 17 -29 22 5 7 -10 12 -28 9 -5 0 -8 4 -8 10 0 5 -4 8 -9 4 -6 -3 -14 3
-20 12 -5 10 -13 15 -16 11 -4 -4 -14 -1 -21 7 -8 7 -18 15 -24 17 -6 2 -13
17 -16 33 -3 16 -2 26 2 23 3 -4 13 0 21 8 8 8 19 12 24 9 5 -4 9 -1 9 4 0 6
5 11 11 11 7 0 18 8 26 18 8 9 12 12 9 5 -4 -6 16 3 43 20 27 18 47 35 44 40
-2 4 3 7 11 7 8 0 20 9 26 20 6 11 16 20 23 20 7 0 21 13 32 29 10 16 23 27
27 25 4 -3 8 1 8 9 0 8 7 18 16 21 9 4 14 9 11 12 -3 3 2 14 11 24 31 35 43
50 37 50 -3 0 3 10 15 22 11 12 20 26 20 31 0 5 9 22 21 38 11 16 17 33 14 39
-3 5 -1 10 4 10 6 0 11 9 11 20 0 11 4 20 8 20 4 0 9 10 9 22 1 13 7 24 13 26
5 2 7 8 4 13 -3 6 0 16 6 24 7 8 9 15 5 15 -4 0 -2 6 4 13 6 8 8 17 5 20 -3 3
-2 12 2 19 8 13 11 21 18 68 2 14 6 32 9 40 3 8 6 22 6 30 3 64 8 97 14 108 5
7 3 12 -3 12 -6 0 -8 5 -3 13 11 18 12 37 2 37 -6 0 -7 5 -3 12 4 7 8 24 8 38
0 14 -4 31 -8 38 -4 7 -2 12 5 12 9 0 9 3 0 14 -9 10 -9 16 -1 21 6 4 7 12 2
18 -4 7 -10 30 -12 52 -4 49 -8 80 -10 80 -1 0 -3 11 -5 25 -2 14 -6 36 -10
50 -3 14 -7 30 -8 35 -2 6 -6 16 -10 23 -5 6 -5 17 -2 22 3 6 1 10 -4 10 -6 0
-11 8 -12 18 0 9 -11 39 -24 67 -13 27 -21 54 -18 59 4 5 1 6 -5 2 -7 -4 -12
-2 -12 3 0 18 -3 26 -17 39 -7 8 -11 17 -8 22 3 5 0 12 -6 16 -8 5 -9 3 -4 -6
5 -9 4 -11 -3 -6 -7 4 -12 16 -12 27 0 10 -5 19 -10 19 -6 0 -15 12 -20 26 -6
15 -14 22 -22 18 -6 -4 -8 -3 -5 3 4 5 -4 21 -16 34 -12 13 -21 27 -19 31 1 5
-2 8 -7 8 -19 0 0 51 29 79 17 15 30 33 30 39 0 5 7 12 15 16 8 3 15 12 15 21
0 8 7 15 16 15 8 0 13 4 9 9 -3 6 3 14 12 20 10 6 15 11 11 11 -8 0 19 35 59
75 12 13 19 26 16 29 -4 3 -1 6 5 6 6 0 14 9 17 20 4 11 10 18 13 16 10 -6 31
40 23 51 -3 5 -22 20 -41 33 -19 13 -39 30 -43 37 -4 7 -14 13 -20 13 -7 0
-19 9 -27 20 -8 11 -20 20 -28 20 -7 0 -15 7 -18 15 -4 8 -12 15 -20 15 -8 0
-14 5 -14 10 0 6 -5 10 -11 10 -6 0 -16 6 -23 13 -26 25 -79 62 -82 57 -2 -3
-11 5 -20 18 -9 13 -27 27 -41 33 -15 6 -22 14 -17 21 4 7 4 10 -1 6 -4 -4
-14 -3 -22 3 -10 9 -13 8 -13 -4z m-942 -715 c12 10 16 10 19 1 3 -9 10 -10
24 -3 14 8 19 7 20 -2 0 -10 2 -10 6 0 2 6 10 9 16 5 5 -3 29 -7 51 -9 53 -3
93 -11 108 -21 7 -4 21 -6 31 -5 9 2 17 -2 17 -9 0 -6 8 -9 20 -6 11 3 18 1
14 -4 -5 -8 9 -13 29 -10 4 0 7 -4 7 -10 0 -5 4 -8 9 -5 5 3 14 -1 21 -9 7 -8
16 -12 21 -9 5 3 9 0 9 -6 0 -6 5 -8 10 -5 6 3 10 -1 10 -10 0 -9 4 -14 8 -11
4 2 23 -9 42 -26 19 -17 45 -37 57 -45 13 -8 21 -19 18 -23 -3 -5 4 -11 15
-15 11 -3 20 -10 20 -16 0 -8 20 -35 48 -65 7 -8 10 -14 5 -14 -4 0 0 -7 10
-14 10 -8 19 -23 20 -35 1 -11 7 -23 15 -26 7 -3 10 -9 7 -15 -3 -5 -1 -10 4
-10 6 0 11 -9 11 -19 0 -11 5 -23 10 -26 6 -3 8 -17 6 -30 -3 -15 0 -24 7 -22
7 1 12 -5 13 -13 0 -8 4 -33 8 -55 4 -22 10 -51 13 -65 2 -14 6 -50 7 -81 2
-31 6 -61 10 -67 4 -7 2 -12 -4 -12 -7 0 -8 -6 0 -19 7 -14 7 -22 -1 -26 -6
-4 -8 -14 -4 -23 3 -8 0 -19 -7 -24 -11 -6 -10 -8 0 -8 8 0 10 -5 6 -12 -4 -7
-9 -26 -10 -43 -1 -16 -2 -30 -4 -30 -2 0 -8 -31 -12 -62 -1 -7 -5 -13 -10
-13 -5 0 -6 -5 -3 -10 4 -6 1 -17 -5 -25 -6 -8 -9 -19 -5 -25 3 -5 2 -10 -4
-10 -6 0 -13 -11 -17 -25 -3 -14 -10 -25 -14 -25 -4 0 -7 -8 -6 -17 0 -10 -4
-17 -11 -16 -7 2 -10 -4 -7 -12 4 -8 1 -15 -5 -15 -6 0 -11 -5 -11 -12 0 -6
-10 -23 -22 -36 -13 -14 -16 -22 -8 -17 8 5 -10 -16 -40 -45 -30 -30 -54 -58
-52 -63 1 -5 -2 -6 -8 -2 -5 3 -10 2 -10 -2 0 -5 -20 -22 -45 -37 -25 -16 -45
-33 -45 -37 0 -5 -6 -6 -14 -3 -8 3 -17 0 -21 -5 -3 -6 -11 -8 -17 -5 -6 4 -8
2 -4 -4 5 -8 -55 -37 -74 -35 -3 1 -13 -3 -23 -9 -10 -5 -28 -11 -40 -14 -81
-17 -112 -21 -124 -17 -7 3 -13 -1 -13 -8 0 -9 -3 -10 -8 -4 -9 13 -32 17 -32
6 0 -4 -12 -7 -27 -4 -16 2 -48 5 -73 7 -25 2 -63 7 -85 11 -22 4 -46 8 -52 8
-7 0 -13 4 -13 8 0 7 -59 21 -72 16 -4 -1 -14 7 -23 18 -9 11 -14 13 -10 5 4
-8 -3 -4 -15 10 -12 14 -19 19 -15 13 3 -7 1 -13 -4 -13 -6 0 -11 4 -11 8 0 4
-15 16 -32 27 -18 10 -39 26 -46 34 -11 13 -12 13 -7 1 4 -8 -14 8 -40 35 -26
28 -44 44 -40 36 5 -9 4 -12 -3 -7 -7 4 -12 13 -12 19 0 7 -9 19 -20 27 -11 8
-20 18 -20 23 0 4 -9 17 -20 29 -11 12 -20 28 -20 35 0 7 -4 13 -9 13 -5 0
-12 7 -15 16 -4 10 -2 13 7 9 6 -4 4 0 -5 8 -10 8 -18 22 -18 31 0 9 -5 16
-11 16 -5 0 -7 5 -4 10 3 6 2 10 -4 10 -6 0 -8 7 -5 15 4 8 2 15 -3 15 -5 0
-10 9 -11 20 -4 42 -6 50 -12 50 -3 0 -6 10 -7 23 0 31 -6 51 -18 59 -6 5 -5
8 4 8 9 0 10 4 4 13 -5 6 -9 45 -8 84 0 40 -4 73 -9 73 -5 0 -4 6 1 13 5 6 9
28 8 47 -1 19 3 41 8 48 6 8 5 12 -4 12 -9 0 -10 3 -4 8 10 7 13 14 20 60 2
15 6 36 9 47 2 11 5 24 5 28 1 5 5 6 10 3 4 -3 6 6 3 21 -4 19 -2 24 8 18 9
-5 11 -4 6 3 -4 7 -4 18 1 25 4 6 8 18 10 26 1 8 6 17 11 20 6 3 12 15 14 26
1 11 13 30 26 43 13 12 19 22 13 22 -10 0 30 48 95 114 57 56 81 75 88 69 3
-4 6 -1 6 5 0 7 7 12 16 12 8 0 12 5 9 10 -3 6 -1 11 4 11 6 1 15 2 21 3 5 0
18 8 28 17 10 9 26 15 35 13 9 -1 17 1 17 6 0 8 89 36 103 32 4 -1 7 2 7 7 0
5 8 8 18 6 9 -1 21 0 27 3 5 4 23 7 38 8 16 2 32 5 35 9 4 3 8 1 10 -5 3 -7 9
-7 20 2z"/>
<path d="M4745 8510 c4 -6 11 -8 16 -5 14 9 11 15 -7 15 -8 0 -12 -5 -9 -10z"/>
<path d="M12192 8331 c-7 -4 -29 -7 -48 -6 -20 2 -34 -2 -34 -9 0 -6 -5 -4
-10 4 -5 8 -10 10 -10 4 0 -6 -15 -12 -32 -13 -18 -2 -41 -3 -50 -4 -10 -1
-18 -5 -18 -10 0 -5 -11 -7 -25 -5 -15 3 -22 1 -18 -5 4 -7 0 -8 -11 -4 -13 5
-17 3 -13 -7 4 -9 1 -13 -7 -10 -6 2 -33 -5 -59 -16 -39 -17 -47 -25 -42 -41
4 -10 2 -19 -3 -19 -13 0 -10 -33 3 -42 6 -5 4 -8 -5 -8 -13 0 -13 -1 0 -10
13 -9 13 -10 0 -10 -13 0 -13 -1 0 -10 8 -5 10 -10 5 -10 -7 0 -8 -24 -5 -65
3 -36 3 -65 -1 -65 -3 0 -3 -20 1 -45 5 -30 3 -45 -4 -45 -6 0 -5 -4 3 -9 7
-5 9 -11 4 -14 -5 -3 -6 -33 -3 -66 3 -34 2 -61 -3 -61 -5 0 -4 -6 2 -13 6 -8
8 -17 4 -20 -12 -13 12 -6 31 8 10 8 23 12 27 9 5 -3 9 0 9 6 0 6 5 8 10 5 6
-3 10 -1 10 5 0 7 6 10 14 7 7 -3 18 -1 23 4 5 5 23 11 40 12 16 2 35 7 42 11
6 4 11 1 11 -6 0 -8 3 -9 8 -3 11 16 104 17 114 3 6 -10 8 -10 8 1 0 11 3 11
17 0 14 -12 16 -12 8 0 -6 11 -5 12 6 5 8 -5 22 -9 32 -10 9 -1 18 -2 20 -3 1
-2 12 -4 25 -7 34 -6 142 -56 142 -66 0 -4 7 -8 15 -8 9 0 18 -7 21 -15 4 -8
10 -12 15 -9 5 3 9 -3 9 -12 0 -10 3 -14 7 -11 3 4 13 -2 20 -13 8 -11 19 -17
25 -14 6 4 8 2 4 -4 -3 -6 -2 -13 4 -17 6 -4 7 -11 4 -17 -4 -6 -3 -9 2 -6 5
3 17 -3 27 -14 9 -10 14 -18 10 -18 -3 0 2 -9 12 -20 10 -11 14 -20 9 -20 -5
0 -4 -4 2 -8 15 -10 47 -72 37 -72 -5 0 -2 -4 5 -9 8 -5 15 -20 15 -35 1 -14
6 -26 10 -26 5 0 5 -4 2 -10 -3 -5 -2 -10 4 -10 5 0 8 -9 6 -20 -2 -11 0 -20
6 -20 5 0 9 -5 9 -11 0 -5 -6 -7 -12 -3 -10 6 -10 5 -1 -7 6 -8 13 -32 14 -54
2 -22 7 -43 12 -46 5 -4 4 -15 -2 -27 -6 -11 -7 -23 -3 -26 5 -3 8 -338 8
-745 -1 -487 2 -741 9 -742 6 -1 13 -1 18 0 4 0 7 -4 7 -10 0 -8 5 -8 15 1 9
8 15 8 15 2 0 -7 10 -8 29 -2 19 5 33 4 40 -3 8 -8 11 -7 11 2 0 11 3 11 15 1
12 -10 15 -10 15 0 0 10 3 10 15 0 12 -10 15 -10 15 0 0 10 3 10 15 0 8 -7 15
-8 15 -3 0 5 9 9 20 9 11 0 20 -4 20 -9 0 -5 7 -4 15 3 12 10 15 10 15 0 0
-10 3 -10 15 0 12 10 15 10 15 0 0 -10 3 -10 15 0 12 10 15 10 15 0 0 -10 3
-10 15 0 12 10 15 10 15 0 0 -10 3 -10 15 0 12 10 15 10 15 0 0 -10 3 -10 15
0 12 10 15 10 15 0 0 -10 3 -10 15 0 12 10 15 10 15 0 0 -10 3 -10 15 0 11 9
15 9 15 1 0 -9 5 -9 21 0 16 8 20 8 14 -1 -6 -9 -3 -9 12 -1 14 7 23 7 31 -1
9 -9 12 -8 12 5 0 9 6 17 13 17 8 0 9 2 1 8 -14 8 -13 80 0 101 7 11 5 13 -7
8 -10 -3 -17 -2 -17 3 0 6 5 10 10 10 6 0 10 5 10 11 0 5 -6 7 -12 3 -10 -6
-10 -4 0 8 8 10 10 26 6 44 -5 21 -4 25 7 19 11 -6 12 -5 2 6 -7 7 -13 17 -13
22 0 4 6 5 13 1 9 -6 9 -4 1 7 -6 8 -11 30 -11 49 0 19 5 41 11 49 9 12 8 13
-6 8 -10 -3 -18 -2 -18 3 0 6 4 10 9 10 5 0 7 16 4 36 -4 29 -2 35 9 28 11 -6
11 -5 0 8 -13 16 -12 44 2 67 7 11 5 13 -7 8 -10 -3 -17 -2 -17 3 0 6 4 10 9
10 5 0 7 16 4 36 -4 29 -2 35 9 28 11 -6 11 -5 0 8 -13 16 -12 44 2 67 7 11 5
13 -7 8 -10 -3 -17 -2 -17 3 0 6 4 10 9 10 5 0 7 16 4 36 -4 29 -2 35 9 28 11
-6 11 -5 0 8 -13 16 -12 44 2 67 7 11 5 13 -7 8 -10 -3 -17 -2 -17 3 0 6 4 10
9 10 5 0 7 16 4 36 -4 27 -2 34 8 29 8 -6 10 -4 3 6 -14 24 -16 51 -2 43 10
-6 10 -4 2 7 -6 8 -11 30 -11 49 0 19 5 41 11 49 9 12 8 13 -6 8 -10 -3 -18
-2 -18 3 0 6 5 10 10 10 6 0 10 5 10 11 0 5 -6 7 -12 3 -10 -6 -10 -4 0 8 8
10 10 26 6 44 -5 21 -4 25 7 19 11 -6 12 -5 2 6 -16 16 -17 33 -1 23 7 -5 8
-3 2 7 -12 19 -15 117 -4 124 5 3 7 12 4 20 -4 8 -11 12 -16 9 -6 -4 -5 2 1
14 14 27 14 35 -1 26 -9 -5 -9 -2 1 9 7 9 10 17 6 17 -4 0 -2 7 5 15 8 9 9 15
2 15 -6 0 -9 10 -6 23 3 12 7 36 9 52 2 17 6 44 10 60 4 17 8 39 10 50 2 11 4
22 5 25 1 3 2 8 1 13 0 4 4 7 10 7 6 0 9 7 5 15 -3 8 -1 15 5 15 6 0 8 4 4 9
-3 5 -1 12 5 16 5 3 10 15 10 26 0 11 7 22 15 25 8 4 13 10 10 14 -3 5 0 14 7
22 7 7 25 32 41 56 15 23 32 42 38 42 5 0 7 5 4 10 -3 6 1 10 10 10 9 0 14 3
12 8 -3 4 1 13 9 20 8 7 14 11 14 8 0 -3 14 8 30 24 17 17 37 30 46 30 8 0 17
7 21 16 3 8 11 13 18 10 8 -3 15 1 18 7 5 12 92 42 114 38 6 -1 14 3 18 9 5 8
12 7 23 -2 12 -10 14 -10 8 0 -8 14 -9 14 94 16 41 1 81 -2 88 -7 8 -6 12 -5
12 4 0 12 2 12 9 0 5 -7 14 -10 20 -7 6 4 11 3 11 -2 0 -5 11 -8 25 -7 14 2
25 -1 25 -6 0 -6 5 -7 10 -4 6 3 10 1 10 -6 0 -7 3 -9 7 -6 7 7 93 -39 104
-55 3 -6 9 -9 13 -9 3 1 21 -15 39 -35 17 -21 46 -51 62 -67 17 -16 24 -27 18
-23 -7 4 -13 2 -13 -3 0 -6 4 -11 9 -11 11 0 41 -57 41 -77 0 -8 5 -11 12 -7
8 5 9 2 5 -9 -3 -9 -1 -22 6 -29 7 -7 13 -22 14 -33 2 -11 4 -30 5 -42 1 -13
5 -23 9 -23 7 0 8 -7 10 -72 2 -27 7 -48 13 -48 6 0 4 -5 -4 -10 -9 -6 -10
-10 -3 -10 6 0 11 -9 10 -20 -1 -11 -5 -20 -10 -20 -4 0 -5 -6 0 -12 11 -19
10 -178 -2 -178 -6 0 -6 -3 0 -8 9 -6 12 -50 5 -77 -1 -5 -1 -12 0 -15 7 -18
4 -168 -5 -179 -7 -10 -7 -13 0 -9 12 8 14 -180 2 -199 -4 -6 -3 -14 1 -17 10
-6 9 -127 -1 -143 -4 -6 -4 -14 1 -17 10 -6 9 -77 -2 -95 -6 -8 -5 -12 0 -8
13 7 12 -186 -1 -195 -7 -5 -6 -8 1 -8 9 0 11 -44 4 -75 -1 -5 -1 -12 0 -15 7
-18 4 -168 -5 -179 -7 -11 -7 -13 1 -8 8 4 11 -6 9 -33 -1 -22 1 -37 6 -35 4
3 10 -1 12 -7 4 -10 6 -10 6 0 1 10 6 10 22 1 17 -9 20 -8 13 3 -6 11 -5 11 9
-1 12 -9 17 -10 17 -2 0 8 6 9 18 2 11 -6 24 -6 35 0 12 7 17 6 17 -2 0 -8 4
-8 15 1 8 7 15 9 15 4 0 -5 11 -9 25 -9 14 0 25 4 25 9 0 5 7 3 15 -4 12 -10
15 -10 15 0 0 9 4 9 13 2 8 -7 18 -7 27 -2 8 5 22 4 33 -2 14 -7 17 -7 13 1
-5 8 0 8 18 1 18 -7 26 -6 26 1 0 8 5 7 15 -1 12 -10 15 -10 15 1 0 10 3 10
12 1 7 -7 17 -8 28 -2 9 5 22 5 30 0 8 -5 21 -5 31 1 12 6 20 5 24 -1 5 -8 11
-7 21 1 11 9 14 8 14 -2 1 -10 5 -9 14 4 8 10 11 27 8 39 -4 16 -2 19 8 13 10
-6 11 -4 4 6 -13 22 -14 43 -1 51 8 5 8 8 1 8 -6 0 -11 11 -11 25 0 14 4 22
10 18 6 -4 7 -1 1 8 -14 22 -14 130 -1 122 9 -5 9 -3 1 8 -15 19 -16 82 -2 73
7 -5 8 -2 2 7 -13 22 -14 43 -1 51 8 5 8 8 1 8 -6 0 -11 11 -11 25 0 14 4 22
10 18 6 -4 7 -1 1 8 -14 22 -14 130 -1 122 9 -5 9 -3 1 8 -15 19 -16 82 -2 73
7 -5 8 -2 2 7 -13 22 -14 43 -1 51 8 5 8 8 1 8 -6 0 -11 11 -11 25 0 14 4 22
10 18 6 -4 7 -1 1 8 -13 21 -15 131 -1 122 6 -4 7 -1 1 8 -14 23 -16 51 -2 43
7 -5 8 -3 2 7 -12 20 -14 78 -3 85 5 3 6 11 2 17 -12 19 -12 77 1 77 8 0 8 2
0 8 -13 9 -15 43 -2 59 5 7 5 13 0 17 -5 3 -9 17 -9 31 0 15 4 22 11 18 8 -5
8 -3 0 8 -14 19 -16 61 -2 53 7 -5 8 -2 2 7 -14 22 -14 150 0 142 6 -3 2 3 -8
15 -11 12 -14 22 -8 22 7 0 8 10 4 28 -4 15 -7 48 -7 74 0 27 -2 48 -5 48 -3
0 -6 19 -8 43 -2 23 -4 54 -5 70 -1 15 -4 27 -7 27 -3 0 -7 11 -8 24 -1 13 -9
50 -18 82 -9 33 -16 65 -17 72 0 6 -4 12 -9 12 -4 0 -7 3 -7 8 3 16 -14 72
-22 72 -5 0 -9 9 -9 20 0 11 -4 20 -9 20 -6 0 -8 9 -6 20 2 11 -1 20 -6 20 -6
0 -16 15 -24 34 -8 19 -20 36 -27 39 -9 4 -9 6 2 6 10 1 8 6 -8 17 -12 8 -22
22 -22 30 0 8 -7 14 -16 14 -8 0 -13 4 -10 9 3 5 -8 23 -24 41 -17 18 -30 37
-30 43 0 6 -3 8 -6 4 -8 -7 -34 17 -34 32 0 6 -6 10 -12 9 -7 -2 -12 3 -10 10
1 8 -2 11 -8 7 -5 -3 -13 1 -16 9 -3 9 -10 13 -15 10 -5 -3 -12 2 -15 10 -3 9
-12 16 -20 16 -8 0 -14 5 -14 10 0 6 -7 10 -15 10 -8 0 -15 3 -15 8 0 8 -61
38 -72 34 -5 -1 -8 2 -8 7 0 9 -23 20 -45 22 -5 0 -19 8 -29 17 -15 13 -17 13
-11 2 4 -8 -4 -4 -20 10 -16 14 -25 19 -20 11 6 -11 4 -13 -11 -6 -10 4 -31
10 -46 13 -15 2 -26 8 -23 12 3 5 -4 6 -15 3 -11 -3 -20 -1 -20 3 0 5 -12 10
-27 10 -72 4 -93 8 -93 17 0 5 -6 5 -13 -2 -8 -6 -17 -8 -20 -5 -3 3 -27 7
-54 9 -26 2 -50 4 -53 5 -15 6 -37 4 -47 -4 -9 -5 -13 -4 -13 4 0 9 -4 9 -17
-1 -15 -12 -16 -12 -8 1 8 13 7 13 -8 1 -12 -9 -17 -10 -17 -2 0 7 -5 9 -12 4
-21 -12 -38 -12 -38 0 0 8 -3 8 -8 2 -4 -6 -24 -11 -45 -12 -21 -1 -46 -8 -55
-15 -13 -11 -14 -11 -7 1 6 11 4 13 -9 8 -10 -4 -27 -7 -37 -7 -11 0 -17 -4
-14 -10 3 -5 0 -7 -8 -4 -7 2 -26 0 -40 -5 -19 -8 -27 -7 -27 1 0 6 -8 1 -18
-10 -12 -13 -27 -20 -40 -17 -12 2 -22 -1 -22 -7 0 -6 -3 -9 -6 -5 -4 3 -13
-1 -21 -9 -9 -8 -22 -13 -29 -10 -8 3 -14 2 -14 -3 0 -4 -21 -19 -46 -32 -26
-13 -48 -29 -51 -36 -3 -7 -9 -11 -13 -8 -4 3 -22 -8 -39 -24 -17 -16 -31 -28
-31 -26 0 2 -20 -16 -45 -41 -25 -24 -45 -48 -45 -54 0 -5 -4 -10 -10 -10 -5
0 -10 -7 -10 -15 0 -9 -6 -12 -15 -9 -10 4 -15 0 -15 -14 0 -11 -7 -23 -16
-26 -8 -3 -12 -10 -9 -16 3 -5 -1 -10 -10 -10 -9 0 -14 -4 -11 -9 3 -5 -5 -20
-18 -34 -13 -14 -22 -28 -20 -30 3 -3 -2 -7 -11 -10 -8 -4 -15 -2 -15 3 0 5
-7 7 -15 4 -9 -4 -15 0 -15 10 0 9 -4 16 -10 16 -5 0 -10 5 -10 11 0 5 6 7 13
4 6 -4 4 0 -5 8 -10 8 -15 17 -11 20 3 4 1 7 -6 7 -7 0 -11 6 -8 13 3 7 -4 19
-14 26 -11 6 -17 16 -14 21 3 6 1 10 -5 10 -6 0 -8 5 -5 10 3 6 2 10 -4 10 -5
0 -13 9 -16 20 -3 11 -13 20 -20 20 -9 0 -12 6 -8 17 4 9 2 14 -3 11 -5 -3
-15 0 -22 8 -7 8 -9 14 -5 14 4 0 -3 7 -15 16 -12 8 -19 20 -16 26 4 7 2 8 -5
4 -6 -4 -14 0 -17 8 -3 9 -12 16 -19 16 -7 0 -16 7 -19 16 -3 9 -13 14 -21 11
-8 -4 -16 2 -20 14 -4 10 -11 17 -16 14 -5 -4 -12 1 -15 9 -3 9 -10 14 -14 11
-5 -3 -15 2 -23 10 -12 11 -17 12 -20 2 -3 -7 -6 -4 -6 6 -1 10 -6 15 -11 12
-6 -4 -17 -1 -25 5 -8 6 -19 9 -25 5 -6 -4 -9 -1 -8 6 2 7 -4 14 -12 15 -8 0
-23 2 -33 2 -11 1 -16 7 -11 15 5 9 4 9 -6 0 -9 -9 -19 -9 -32 -2 -11 6 -32
11 -49 11 -16 1 -29 6 -29 12 0 6 -5 4 -10 -4 -5 -8 -10 -10 -10 -4 0 6 -16
10 -37 9 -21 0 -46 3 -55 7 -12 6 -18 5 -18 -4 0 -9 -3 -9 -10 2 -9 13 -10 13
-10 0 0 -13 -1 -13 -10 0 -9 13 -10 13 -10 0 0 -13 -1 -13 -10 0 -9 13 -10 13
-10 0 0 -11 -2 -12 -8 -3 -4 7 -13 9 -20 4z"/>
<path d="M7465 8279 c-11 -4 -14 -8 -6 -8 7 -1 11 -7 8 -15 -3 -8 -3 -17 1
-20 3 -4 7 -14 8 -24 2 -9 7 -18 13 -20 5 -2 7 -10 4 -19 -4 -11 -2 -14 5 -9
8 5 12 -3 12 -23 0 -17 5 -31 10 -31 6 0 10 -9 10 -20 0 -11 4 -20 10 -20 5 0
7 -6 4 -14 -3 -8 0 -17 5 -21 6 -3 9 -11 6 -16 -4 -5 -1 -9 6 -9 7 0 9 -3 6
-7 -4 -3 0 -17 8 -29 8 -13 16 -35 17 -48 1 -14 6 -22 10 -20 7 5 12 -18 9
-38 0 -5 4 -8 10 -8 6 0 9 -7 5 -15 -3 -8 -1 -15 4 -15 8 0 21 -27 26 -55 2
-11 34 -84 59 -138 8 -15 9 -25 4 -21 -6 3 -5 -3 3 -15 7 -12 15 -21 18 -21 3
0 6 -8 6 -17 1 -26 8 -47 17 -54 5 -3 10 -12 11 -20 2 -8 9 -30 17 -49 7 -19
12 -38 11 -42 -1 -5 3 -8 10 -8 6 0 9 -3 5 -6 -3 -4 0 -13 8 -20 8 -8 12 -21
9 -29 -4 -8 -1 -15 6 -15 8 0 10 -8 7 -21 -3 -12 0 -22 9 -26 8 -3 14 -14 14
-24 0 -10 4 -19 8 -19 5 0 9 -7 10 -15 1 -8 3 -22 4 -30 1 -8 5 -15 10 -15 4
0 8 -8 8 -18 0 -10 4 -22 9 -27 5 -6 11 -19 13 -30 1 -11 7 -23 11 -26 4 -3 9
-16 10 -27 1 -12 6 -22 11 -22 5 0 6 -3 3 -6 -3 -4 0 -16 8 -28 8 -11 15 -28
15 -38 0 -10 5 -18 10 -18 6 0 10 -7 10 -15 0 -14 29 -86 51 -128 5 -10 7 -22
4 -27 -4 -6 -1 -10 5 -10 6 0 9 -4 6 -9 -3 -5 1 -12 10 -15 8 -3 13 -10 10
-15 -3 -5 1 -25 9 -44 8 -19 11 -37 8 -41 -4 -3 -1 -6 5 -6 6 0 17 -19 23 -42
7 -24 19 -50 26 -59 8 -9 13 -20 11 -25 -1 -5 3 -19 10 -32 7 -12 10 -27 7
-32 -3 -6 -1 -10 4 -10 6 0 11 -7 11 -15 0 -8 4 -15 9 -15 5 0 8 -8 7 -17 -2
-10 1 -21 6 -24 5 -3 10 -12 12 -20 1 -8 11 -32 21 -54 10 -22 19 -43 20 -47
2 -5 4 -10 5 -13 1 -3 3 -8 5 -12 14 -52 19 -63 27 -63 5 0 7 -4 3 -9 -3 -5
-1 -12 5 -16 6 -4 8 -10 5 -15 -3 -5 1 -15 9 -23 8 -8 12 -17 9 -21 -3 -3 2
-16 13 -28 10 -12 13 -18 7 -14 -9 5 -11 2 -7 -8 3 -9 10 -16 16 -16 5 0 8 -8
6 -17 -2 -10 2 -23 10 -29 8 -5 15 -22 15 -37 1 -15 7 -29 14 -31 6 -3 10 -16
9 -30 -2 -14 1 -23 5 -20 5 3 10 0 10 -5 3 -24 16 -56 65 -166 22 -49 25 -65
13 -65 -5 0 -8 -3 -8 -7 1 -5 -4 -24 -12 -43 -7 -19 -12 -38 -11 -42 1 -5 -2
-8 -6 -8 -9 0 -37 -70 -34 -82 1 -5 -3 -8 -9 -8 -5 0 -7 -4 -4 -10 3 -5 1 -10
-6 -10 -7 0 -9 -3 -6 -6 3 -4 1 -16 -5 -28 -7 -11 -11 -24 -10 -28 1 -5 -2 -8
-7 -8 -5 0 -15 -20 -22 -45 -7 -25 -17 -45 -22 -45 -4 0 -6 -4 -2 -9 3 -5 1
-12 -5 -16 -6 -4 -8 -11 -5 -16 4 -5 2 -9 -3 -9 -9 0 -27 -47 -24 -62 1 -5 -2
-8 -8 -8 -5 0 -10 -4 -10 -9 0 -5 -5 -22 -12 -38 -6 -15 -11 -31 -10 -35 1 -5
-3 -8 -9 -8 -5 0 -8 -4 -4 -9 3 -5 -1 -15 -8 -23 -13 -13 -32 -66 -29 -80 1
-5 -3 -8 -9 -8 -5 0 -8 -4 -4 -9 3 -6 -3 -14 -12 -20 -14 -8 -15 -11 -3 -11
12 0 10 -4 -4 -15 -11 -8 -16 -15 -12 -15 5 0 3 -6 -3 -13 -6 -8 -8 -17 -4
-20 3 -4 0 -7 -7 -7 -7 0 -10 -3 -7 -7 4 -3 0 -17 -8 -30 -9 -13 -13 -27 -10
-32 2 -5 -2 -12 -11 -15 -8 -3 -13 -10 -9 -15 3 -5 1 -12 -5 -16 -6 -4 -7 -11
-4 -17 4 -6 -1 -17 -11 -25 -11 -7 -15 -13 -11 -13 5 0 3 -6 -3 -13 -6 -8 -12
-24 -14 -36 -2 -13 -10 -27 -18 -32 -8 -5 -10 -9 -5 -9 4 0 2 -10 -6 -22 -10
-15 -12 -30 -7 -43 4 -11 8 -14 8 -8 1 9 8 10 26 3 14 -5 25 -6 25 -2 0 9 53
8 68 -2 6 -3 13 -2 17 4 4 7 12 7 26 0 12 -7 19 -7 19 -1 0 7 9 7 25 1 14 -5
25 -6 25 -1 0 9 30 8 47 -2 6 -4 14 -3 18 3 4 7 12 7 26 0 12 -7 19 -7 19 -1
0 7 9 7 25 1 15 -6 25 -6 25 0 0 5 12 5 30 0 17 -5 30 -6 30 -2 0 4 42 6 92 5
86 -3 94 -1 110 20 10 12 18 30 18 40 0 9 4 17 10 17 5 0 9 3 8 8 -5 17 24 82
34 76 7 -4 8 -2 4 5 -4 6 1 29 13 50 11 22 17 42 14 45 -4 3 -1 6 6 6 8 0 11
7 7 15 -3 8 -2 15 2 15 4 0 13 9 20 21 8 12 9 18 3 14 -16 -9 -13 4 4 22 8 8
13 19 10 24 -4 5 -1 9 5 9 6 0 9 4 6 9 -4 5 -2 11 4 13 6 2 12 14 15 28 3 14
9 26 15 28 6 2 8 7 5 12 -7 11 15 60 27 60 5 0 7 3 4 8 -2 4 3 23 11 42 9 19
15 38 15 43 -1 4 2 7 8 7 5 0 10 8 10 18 0 10 5 23 11 29 6 6 12 17 13 24 2 8
9 28 16 44 7 17 13 33 12 38 -1 4 3 7 9 7 5 0 8 4 4 9 -3 5 -1 12 5 16 6 4 8
11 5 16 -4 5 -1 9 6 9 7 0 9 3 6 7 -4 3 1 15 10 26 10 10 16 21 15 23 -5 6 51
138 60 142 4 2 4 10 1 18 -3 8 0 14 6 14 6 0 11 7 11 16 0 9 6 28 14 42 18 34
30 65 28 75 -1 4 3 7 9 7 5 0 7 5 4 10 -3 6 -1 10 4 10 6 0 11 11 11 24 0 13
4 26 9 28 5 2 11 12 13 23 1 11 5 22 8 25 3 3 11 16 18 29 11 19 11 22 0 15
-7 -4 -3 5 10 20 12 16 19 32 16 37 -3 5 0 9 5 9 6 0 10 3 9 8 -1 4 5 23 14
43 9 20 19 45 22 57 4 12 12 22 17 22 6 0 7 5 4 10 -3 6 -1 10 5 10 6 0 8 4 5
10 -3 5 0 20 7 32 7 13 11 26 10 31 -1 4 3 7 9 7 5 0 8 4 4 9 -3 5 2 17 11 25
9 9 11 16 4 16 -7 0 -6 6 4 15 8 8 18 25 22 38 4 12 12 25 18 29 7 5 6 8 -3 8
-11 0 -10 4 5 16 10 8 12 12 4 8 -11 -6 -10 -2 3 13 9 11 14 23 10 26 -3 4 -2
7 4 7 6 0 13 13 16 29 3 16 13 36 22 45 10 9 12 16 5 16 -7 0 -5 6 4 16 9 8
17 20 17 25 1 5 3 14 4 19 1 6 3 15 4 21 0 5 6 7 13 3 7 -4 8 -3 4 4 -4 6 0
24 8 40 8 16 12 32 9 36 -4 3 -1 6 5 6 6 0 13 14 17 30 4 17 11 30 16 30 6 0
7 5 4 10 -3 6 -2 10 4 10 5 0 8 9 6 20 -2 11 0 18 6 15 5 -4 10 1 10 9 3 33 4
37 19 46 8 5 12 10 7 10 -4 0 -1 13 7 29 9 16 12 31 9 35 -4 3 -1 6 5 6 7 0
12 9 12 21 0 11 4 17 10 14 5 -3 7 0 4 8 -3 8 0 18 5 22 6 3 9 11 6 16 -4 5
-1 9 5 9 6 0 8 5 5 10 -3 6 -2 10 4 10 5 0 8 9 6 20 -2 13 2 20 11 20 8 0 12
5 9 10 -4 6 -1 17 5 25 7 8 9 15 4 15 -5 0 -3 4 4 9 7 4 14 14 15 22 2 8 5 19
8 24 4 6 12 27 18 48 7 20 16 35 20 33 4 -3 8 7 9 22 1 14 8 29 15 34 6 4 8 8
3 8 -5 0 -3 6 3 13 6 8 8 17 4 20 -3 4 -1 7 6 7 8 0 11 8 8 20 -3 11 -1 18 3
15 5 -3 14 12 21 34 7 22 16 38 20 35 4 -2 6 5 4 16 -2 11 1 20 6 20 6 0 7 5
4 10 -3 6 0 12 7 15 8 3 15 17 16 32 1 15 8 30 15 35 6 4 8 8 3 8 -6 0 -5 5 2
12 7 7 12 20 12 31 0 10 4 15 10 12 6 -3 7 1 4 9 -3 9 -1 16 5 16 6 0 10 3 9
8 -1 4 4 18 9 32 31 71 36 86 35 93 -1 4 2 7 8 7 6 0 9 3 8 8 -1 4 3 17 10 28
6 12 8 24 5 28 -3 3 0 6 7 6 7 0 10 3 7 6 -3 4 -1 16 5 28 7 11 11 24 10 29
-1 4 2 7 8 7 5 0 10 4 10 9 0 5 5 22 12 38 6 15 11 31 10 36 -1 4 2 7 8 7 6 0
9 3 8 8 -1 4 5 21 12 37 7 17 12 36 11 44 -1 7 2 10 8 6 9 -5 14 12 10 41 0 3
8 12 18 20 10 7 15 14 11 14 -4 0 4 24 17 53 33 69 32 82 -3 81 -16 0 -34 -4
-40 -8 -7 -4 -12 -2 -12 5 0 10 -3 10 -12 1 -13 -13 -32 -17 -25 -4 6 9 -56 8
-71 -2 -7 -4 -12 -1 -12 6 0 8 -3 9 -8 3 -9 -13 -42 -16 -42 -4 0 5 -11 4 -25
-1 -16 -6 -26 -6 -31 1 -4 6 -11 6 -20 -2 -11 -9 -14 -8 -14 2 0 12 -2 12 -9
0 -6 -10 -10 -10 -16 -1 -6 9 -10 9 -16 -1 -6 -9 -12 -10 -16 -4 -9 12 -53 12
-71 1 -7 -4 -12 -2 -12 6 0 8 -3 9 -8 3 -8 -11 -42 -16 -42 -6 0 4 -9 7 -20 7
-11 0 -20 -4 -20 -9 0 -5 -6 -5 -13 2 -10 8 -17 7 -25 -1 -9 -9 -12 -9 -12 0
0 9 -5 10 -19 3 -10 -6 -22 -7 -27 -3 -5 4 -6 3 -2 -2 4 -4 0 -15 -8 -23 -8
-8 -12 -19 -9 -24 4 -5 1 -9 -5 -9 -6 0 -9 -4 -5 -9 3 -5 1 -12 -5 -16 -6 -4
-8 -11 -5 -16 4 -5 1 -9 -4 -9 -6 0 -11 -9 -11 -19 0 -11 -6 -26 -13 -33 -15
-14 -15 -15 -23 -58 -4 -16 -10 -30 -14 -30 -4 0 -10 -13 -13 -29 -3 -16 -13
-36 -22 -44 -17 -18 -20 -31 -4 -22 12 8 -11 -37 -25 -46 -5 -4 -5 -12 -2 -18
4 -6 2 -11 -3 -11 -6 0 -11 -6 -11 -12 0 -7 -7 -26 -15 -42 -8 -15 -12 -32 -9
-37 3 -5 0 -9 -5 -9 -6 0 -11 -9 -11 -19 0 -10 -7 -21 -15 -25 -8 -3 -12 -12
-9 -21 3 -8 1 -15 -6 -15 -6 0 -8 -4 -5 -10 3 -5 -1 -21 -10 -34 -9 -14 -17
-29 -17 -33 0 -4 -5 -19 -11 -33 -6 -14 -11 -27 -12 -30 0 -3 -7 -16 -15 -30
-7 -14 -13 -26 -12 -27 1 -2 -8 -24 -19 -50 -37 -84 -42 -98 -45 -112 -1 -8
-9 -18 -16 -22 -11 -7 -11 -9 0 -9 10 0 10 -4 -2 -16 -9 -8 -16 -20 -16 -25 0
-18 -2 -24 -12 -36 -6 -7 -7 -13 -4 -13 4 0 0 -7 -8 -16 -9 -8 -16 -24 -16
-34 0 -10 -4 -21 -9 -24 -8 -5 -25 -64 -22 -78 0 -5 -4 -8 -10 -8 -5 0 -8 -4
-4 -9 3 -5 1 -12 -5 -16 -6 -4 -8 -11 -5 -16 4 -5 1 -9 -4 -9 -6 0 -10 -3 -9
-7 2 -9 -8 -47 -22 -78 -7 -18 -21 -52 -25 -65 -1 -3 -7 -18 -14 -35 -7 -16
-15 -39 -17 -49 -2 -11 -7 -22 -11 -25 -8 -6 -15 -27 -16 -48 0 -7 -4 -13 -9
-13 -5 0 -7 -4 -3 -9 3 -5 0 -13 -6 -16 -5 -4 -8 -13 -5 -21 3 -8 1 -14 -5
-14 -6 0 -9 -7 -5 -15 3 -8 1 -15 -4 -15 -5 0 -14 -19 -20 -41 -6 -23 -16 -51
-22 -63 -26 -50 -28 -57 -23 -66 3 -4 0 -10 -5 -12 -6 -2 -12 -13 -13 -26 0
-12 -5 -22 -10 -22 -5 0 -6 -7 -3 -16 3 -8 2 -13 -2 -10 -4 2 -14 1 -21 -3
-15 -10 -59 28 -53 45 2 7 -1 15 -7 19 -6 3 -11 16 -11 29 0 12 -3 25 -6 29
-11 10 -62 172 -57 180 2 4 -1 7 -7 7 -6 0 -8 5 -5 10 3 6 2 10 -4 10 -6 0 -8
6 -5 14 3 8 1 17 -5 21 -6 3 -11 16 -11 29 0 12 -5 27 -12 34 -7 7 -9 12 -6
12 4 0 1 12 -7 27 -8 15 -12 30 -9 35 3 4 1 8 -5 8 -5 0 -8 8 -7 17 2 10 -3
24 -11 31 -7 8 -11 18 -7 23 3 6 1 16 -5 23 -6 7 -13 23 -15 37 -3 13 -5 26
-6 29 -2 3 -2 8 -1 13 0 4 -3 7 -8 7 -5 0 -7 10 -3 22 4 16 2 19 -8 13 -10 -6
-12 -4 -7 8 3 10 2 17 -4 17 -6 0 -8 4 -5 9 3 4 -3 27 -14 49 -11 23 -20 50
-20 61 0 10 -4 21 -10 23 -5 2 -11 15 -12 30 -1 15 -7 29 -14 32 -6 2 -10 15
-9 28 1 12 -2 26 -7 29 -5 3 -10 16 -11 27 -1 12 -5 22 -10 22 -5 0 -7 7 -3
15 3 8 -2 21 -10 30 -9 8 -12 15 -8 15 3 0 0 8 -7 17 -12 15 -12 16 1 8 12 -7
13 -6 3 7 -7 8 -10 18 -6 21 3 4 1 7 -5 7 -7 0 -12 11 -12 24 0 13 -4 26 -10
28 -5 2 -10 18 -12 36 -1 17 -5 32 -9 32 -6 0 -11 12 -24 63 -2 4 -4 10 -5 15
-1 4 -2 10 -1 15 0 4 -3 7 -7 7 -4 0 -9 10 -9 22 -1 13 -6 32 -12 43 -10 22
-23 58 -21 63 0 1 -6 15 -14 30 -8 15 -16 38 -17 52 -2 14 -8 28 -12 31 -4 3
-9 16 -10 27 -1 12 -5 22 -10 22 -5 0 -7 6 -4 14 3 7 0 19 -6 25 -6 6 -7 11
-1 11 5 0 3 4 -3 8 -7 4 -14 17 -16 27 -1 11 -6 26 -11 33 -4 7 -5 19 -3 27 3
7 -1 16 -9 19 -8 3 -14 9 -13 13 1 4 0 11 -1 16 -1 4 -3 10 -5 15 -15 56 -19
63 -31 58 -8 -3 -14 0 -14 6 0 9 -3 9 -11 1 -7 -7 -23 -8 -45 -3 -21 5 -37 4
-40 -2 -4 -6 -10 -5 -15 3 -7 11 -9 11 -9 1 0 -8 -5 -10 -12 -6 -6 4 -26 7
-43 7 -17 0 -37 -3 -43 -7 -7 -4 -12 -2 -12 6 0 8 -3 9 -8 3 -9 -13 -42 -16
-42 -4 0 5 -11 4 -25 -1 -16 -6 -26 -6 -31 1 -4 6 -11 6 -20 -2 -11 -9 -14 -8
-14 2 0 12 -2 12 -9 0 -6 -10 -10 -10 -16 -1 -6 9 -10 9 -16 -1 -6 -9 -12 -10
-16 -4 -9 12 -53 12 -71 1 -7 -4 -12 -2 -12 6 0 10 -2 10 -9 -1 -6 -9 -10 -10
-16 -2 -5 9 -10 9 -20 1 -10 -8 -14 -7 -18 2 -4 11 -6 11 -6 0 -1 -10 -6 -10
-22 -1 -16 8 -20 8 -14 -1 7 -12 -25 -11 -35 1 -3 4 -14 3 -25 -2z"/>
</g>
</svg>
